<svg xmlns="http://www.w3.org/2000/svg" viewBox="0 -0.5 488 445" shape-rendering="crispEdges">
<metadata>Made with Pixels to Svg https://codepen.io/shshaw/pen/XbxvNj</metadata>
<path stroke="#c2c3c5" d="M0 0h1M6 0h1M22 0h1M480 0h1M0 6h1M0 11h1M0 16h1M7 23h1M40 23h1M480 23h1" />
<path stroke="#c3c3c1" d="M1 0h1M3 0h1M14 0h1M21 0h1M25 0h1M481 0h1M0 3h1M0 17h1M35 22h1M40 22h1M6 23h1M33 23h1M35 23h2M481 23h1" />
<path stroke="#c4c3c1" d="M2 0h1M0 1h1M0 2h1M0 12h1M6 22h1M32 22h1M47 22h1M481 22h1M0 23h1" />
<path stroke="#c1c3c2" d="M4 0h1M0 4h1M3 22h1" />
<path stroke="#c2c4c1" d="M5 0h1M16 0h1M31 0h1M0 5h1M38 22h1" />
<path stroke="#c3c3c5" d="M7 0h1M11 0h1M17 0h1M24 0h1M29 0h1M483 0h1M485 0h1M0 7h1M0 19h1M0 21h1M0 22h1M2 23h1M4 23h1M32 23h1M483 23h1M485 23h1" />
<path stroke="#c3c3c3" d="M8 0h3M12 0h1M20 0h1M26 0h1M28 0h1M30 0h1M32 0h448M482 0h1M0 8h1M0 9h1M0 10h1M0 14h1M0 18h1M0 20h1M8 22h24M33 22h1M41 22h2M48 22h432M3 23h1M5 23h1M8 23h24M37 23h3M41 23h2M44 23h3M48 23h432M482 23h1M0 24h1M2 24h4M8 24h472M482 24h4M2 25h1M4 25h2M8 25h472M482 25h1M485 25h1M0 26h1M2 26h484M0 27h1M2 27h4M7 27h479M0 28h1M2 28h484M0 29h1M2 29h3M7 29h479M0 30h1M3 30h3M7 30h474M483 30h2M0 31h1M2 31h2M484 31h2M0 32h1M2 32h2M484 32h2M0 33h1M2 33h2M484 33h2M0 34h1M2 34h2M484 34h2M0 35h1M2 35h2M484 35h2M0 36h1M2 36h2M484 36h2M0 37h1M2 37h2M484 37h2M0 38h1M2 38h2M484 38h2M0 39h1M2 39h2M484 39h2M0 40h1M2 40h2M484 40h2M0 41h1M2 41h2M484 41h2M0 42h1M2 42h2M484 42h2M0 43h1M2 43h2M484 43h2M0 44h1M2 44h2M484 44h2M0 45h1M2 45h2M484 45h2M0 46h1M2 46h2M484 46h2M0 47h1M2 47h2M484 47h2M0 48h1M2 48h2M484 48h2M0 49h1M2 49h2M484 49h2M0 50h1M2 50h2M484 50h2M0 51h1M2 51h2M484 51h2M0 52h1M2 52h2M484 52h2M0 53h1M2 53h2M484 53h2M0 54h1M2 54h2M484 54h2M0 55h1M2 55h2M484 55h2M0 56h1M2 56h2M484 56h2M0 57h1M2 57h2M484 57h2M0 58h1M2 58h2M484 58h2M0 59h1M2 59h2M484 59h2M0 60h1M2 60h2M484 60h2M0 61h1M2 61h2M484 61h2M0 62h1M2 62h2M484 62h2M0 63h1M2 63h2M484 63h2M0 64h1M2 64h2M484 64h2M0 65h1M2 65h2M484 65h2M0 66h1M2 66h2M484 66h2M0 67h1M2 67h2M484 67h2M0 68h1M2 68h2M484 68h2M0 69h1M2 69h2M484 69h2M0 70h1M2 70h2M484 70h2M0 71h1M2 71h2M484 71h2M0 72h1M2 72h2M484 72h2M0 73h1M2 73h2M484 73h2M0 74h1M2 74h2M484 74h2M0 75h1M2 75h2M484 75h2M0 76h1M2 76h2M484 76h2M0 77h1M2 77h2M484 77h2M0 78h1M2 78h2M484 78h2M0 79h1M2 79h2M484 79h2M0 80h1M2 80h2M484 80h2M0 81h1M2 81h2M484 81h2M0 82h1M2 82h2M484 82h2M0 83h1M2 83h2M484 83h2M0 84h1M2 84h2M484 84h2M0 85h1M2 85h2M484 85h2M0 86h1M2 86h2M484 86h2M0 87h1M2 87h2M484 87h2M0 88h1M2 88h2M484 88h2M0 89h1M2 89h2M484 89h2M0 90h1M2 90h2M484 90h2M0 91h1M2 91h2M484 91h2M0 92h1M2 92h2M484 92h2M0 93h1M2 93h2M484 93h2M0 94h1M2 94h2M484 94h2M0 95h1M2 95h2M484 95h2M0 96h1M2 96h2M484 96h2M0 97h1M2 97h2M484 97h2M0 98h1M2 98h2M484 98h2M0 99h1M2 99h2M484 99h2M0 100h1M2 100h2M484 100h2M0 101h1M2 101h2M484 101h2M0 102h1M2 102h2M484 102h2M0 103h1M2 103h2M484 103h2M0 104h1M2 104h2M484 104h2M0 105h1M2 105h2M484 105h2M0 106h1M2 106h2M484 106h2M0 107h1M2 107h2M484 107h2M0 108h1M2 108h2M484 108h2M0 109h1M2 109h2M484 109h2M0 110h1M2 110h2M484 110h2M0 111h1M2 111h2M484 111h2M0 112h1M2 112h2M484 112h2M0 113h1M2 113h2M484 113h2M0 114h1M2 114h2M484 114h2M0 115h1M2 115h2M484 115h2M0 116h1M2 116h2M484 116h2M0 117h1M2 117h2M484 117h2M0 118h1M2 118h2M484 118h2M0 119h1M2 119h2M484 119h2M0 120h1M2 120h2M484 120h2M0 121h1M2 121h2M484 121h2M0 122h1M2 122h2M484 122h2M0 123h1M2 123h2M484 123h2M0 124h1M2 124h2M484 124h2M0 125h1M2 125h2M484 125h2M0 126h1M2 126h2M484 126h2M0 127h1M2 127h2M484 127h2M0 128h1M2 128h2M484 128h2M0 129h1M2 129h2M484 129h2M0 130h1M2 130h2M484 130h2M0 131h1M2 131h2M484 131h2M0 132h1M2 132h2M484 132h2M0 133h1M2 133h2M484 133h2M0 134h1M2 134h2M484 134h2M0 135h1M2 135h2M484 135h2M0 136h1M2 136h2M484 136h2M0 137h1M2 137h2M484 137h2M0 138h1M2 138h2M484 138h2M0 139h1M2 139h2M484 139h2M0 140h1M2 140h2M484 140h2M0 141h1M2 141h2M484 141h2M0 142h1M2 142h2M484 142h2M0 143h1M2 143h2M484 143h2M0 144h1M2 144h2M484 144h2M0 145h1M2 145h2M484 145h2M0 146h1M2 146h2M484 146h2M0 147h1M2 147h2M484 147h2M0 148h1M2 148h2M484 148h2M0 149h1M2 149h2M484 149h2M0 150h1M2 150h2M484 150h2M0 151h1M2 151h2M484 151h2M0 152h1M2 152h2M484 152h2M0 153h1M2 153h2M484 153h2M0 154h1M2 154h2M484 154h2M0 155h1M2 155h2M484 155h2M0 156h1M2 156h2M484 156h2M0 157h1M2 157h2M484 157h2M0 158h1M2 158h2M484 158h2M0 159h1M2 159h2M484 159h2M0 160h1M2 160h2M484 160h2M0 161h1M2 161h2M484 161h2M0 162h1M2 162h2M484 162h2M0 163h1M2 163h2M484 163h2M0 164h1M2 164h2M484 164h2M0 165h1M2 165h2M484 165h2M0 166h1M2 166h2M484 166h2M0 167h1M2 167h2M484 167h2M0 168h1M2 168h2M484 168h2M0 169h1M2 169h2M484 169h2M0 170h1M2 170h2M484 170h2M0 171h1M2 171h2M484 171h2M0 172h1M2 172h2M484 172h2M0 173h1M2 173h2M484 173h2M0 174h1M2 174h2M484 174h2M0 175h1M2 175h2M484 175h2M0 176h1M2 176h2M484 176h2M0 177h1M2 177h2M484 177h2M0 178h1M2 178h2M484 178h2M0 179h1M2 179h2M484 179h2M0 180h1M2 180h2M484 180h2M0 181h1M2 181h2M484 181h2M0 182h1M2 182h2M484 182h2M0 183h1M2 183h2M484 183h2M0 184h1M2 184h2M484 184h2M0 185h1M2 185h2M484 185h2M0 186h1M2 186h2M484 186h2M0 187h1M2 187h2M484 187h2M0 188h1M2 188h2M484 188h2M0 189h1M2 189h2M484 189h2M0 190h1M2 190h2M484 190h2M0 191h1M2 191h2M484 191h2M0 192h1M2 192h2M484 192h2M0 193h1M2 193h2M484 193h2M0 194h1M2 194h2M484 194h2M0 195h1M2 195h2M484 195h2M0 196h1M2 196h2M484 196h2M0 197h1M2 197h2M484 197h2M0 198h1M2 198h2M484 198h2M0 199h1M2 199h2M484 199h2M0 200h1M2 200h2M484 200h2M0 201h1M2 201h2M484 201h2M0 202h1M2 202h2M484 202h2M0 203h1M2 203h2M484 203h2M0 204h1M2 204h2M484 204h2M0 205h1M2 205h2M484 205h2M0 206h1M2 206h2M484 206h2M0 207h1M2 207h2M484 207h2M0 208h1M2 208h2M484 208h2M0 209h1M2 209h2M484 209h2M0 210h1M2 210h2M484 210h2M0 211h1M2 211h2M484 211h2M0 212h1M2 212h2M484 212h2M0 213h1M2 213h2M484 213h2M0 214h1M2 214h2M484 214h2M0 215h1M2 215h2M484 215h2M0 216h1M2 216h2M484 216h2M0 217h1M2 217h2M484 217h2M0 218h1M2 218h2M484 218h2M0 219h1M2 219h2M484 219h2M0 220h1M2 220h2M484 220h2M0 221h1M2 221h2M484 221h2M0 222h1M2 222h2M484 222h2M0 223h1M2 223h2M484 223h2M0 224h1M2 224h2M484 224h2M0 225h1M2 225h2M484 225h2M0 226h1M2 226h2M484 226h2M0 227h1M2 227h2M484 227h2M0 228h1M2 228h2M484 228h2M0 229h1M2 229h2M484 229h2M0 230h1M2 230h2M484 230h2M0 231h1M2 231h2M484 231h2M0 232h1M2 232h2M484 232h2M0 233h1M2 233h2M484 233h2M0 234h1M2 234h2M484 234h2M0 235h1M2 235h2M484 235h2M0 236h1M2 236h2M484 236h2M0 237h1M2 237h2M484 237h2M0 238h1M2 238h2M484 238h2M0 239h1M2 239h2M484 239h2M0 240h1M2 240h2M484 240h2M0 241h1M2 241h2M484 241h2M0 242h1M2 242h2M484 242h2M0 243h1M2 243h2M484 243h2M0 244h1M2 244h2M484 244h2M0 245h1M2 245h2M484 245h2M0 246h1M2 246h2M484 246h2M0 247h1M2 247h2M484 247h2M0 248h1M2 248h2M484 248h2M0 249h1M2 249h2M484 249h2M0 250h1M2 250h2M484 250h2M0 251h1M2 251h2M484 251h2M0 252h1M2 252h2M484 252h2M0 253h1M2 253h2M484 253h2M0 254h1M2 254h2M484 254h2M0 255h1M2 255h2M484 255h2M0 256h1M2 256h2M484 256h2M0 257h1M2 257h2M484 257h2M0 258h1M2 258h2M484 258h2M0 259h1M2 259h2M484 259h2M0 260h1M2 260h2M484 260h2M0 261h1M2 261h2M484 261h2M0 262h1M2 262h2M484 262h2M0 263h1M2 263h2M484 263h2M0 264h1M2 264h2M484 264h2M0 265h1M2 265h2M484 265h2M0 266h1M2 266h2M484 266h2M0 267h1M2 267h2M484 267h2M0 268h1M2 268h2M484 268h2M0 269h1M2 269h2M484 269h2M0 270h1M2 270h2M484 270h2M0 271h1M2 271h2M484 271h2M0 272h1M2 272h2M484 272h2M0 273h1M2 273h2M484 273h2M0 274h1M2 274h2M484 274h2M0 275h1M2 275h2M484 275h2M0 276h1M2 276h2M484 276h2M0 277h1M2 277h2M484 277h2M0 278h1M2 278h2M484 278h2M0 279h1M2 279h2M484 279h2M0 280h1M2 280h2M484 280h2M0 281h1M2 281h2M484 281h2M0 282h1M2 282h2M484 282h2M0 283h1M2 283h2M484 283h2M0 284h1M2 284h2M484 284h2M0 285h1M2 285h2M484 285h2M0 286h1M2 286h2M484 286h2M0 287h1M2 287h2M484 287h2M0 288h1M2 288h2M484 288h2M0 289h1M2 289h2M484 289h2M0 290h1M2 290h2M484 290h2M0 291h1M2 291h2M484 291h2M0 292h1M2 292h2M484 292h2M0 293h1M2 293h2M484 293h2M0 294h1M2 294h2M484 294h2M0 295h1M2 295h2M484 295h2M0 296h1M2 296h2M484 296h2M0 297h1M2 297h2M484 297h2M0 298h1M2 298h2M484 298h2M0 299h1M2 299h2M484 299h2M0 300h1M2 300h2M484 300h2M0 301h1M2 301h2M484 301h2M0 302h1M2 302h2M484 302h2M0 303h1M2 303h2M484 303h2M0 304h1M2 304h2M484 304h2M0 305h1M2 305h2M484 305h2M0 306h1M2 306h2M484 306h2M0 307h1M2 307h2M484 307h2M0 308h1M2 308h2M484 308h2M0 309h1M2 309h2M484 309h2M0 310h1M2 310h2M484 310h2M0 311h1M2 311h2M484 311h2M0 312h1M2 312h2M484 312h2M0 313h1M2 313h2M484 313h2M0 314h1M2 314h2M484 314h2M0 315h1M2 315h2M484 315h2M0 316h1M2 316h2M484 316h2M0 317h1M2 317h2M484 317h2M0 318h1M2 318h2M484 318h2M0 319h1M2 319h2M484 319h2M0 320h1M2 320h2M484 320h2M0 321h1M2 321h2M484 321h2M0 322h1M2 322h2M484 322h2M0 323h1M2 323h2M484 323h2M0 324h1M2 324h2M484 324h2M0 325h1M2 325h2M484 325h2M0 326h1M2 326h2M484 326h2M0 327h1M2 327h2M484 327h2M0 328h1M2 328h2M484 328h2M0 329h1M2 329h2M484 329h2M0 330h1M2 330h2M484 330h2M0 331h1M2 331h2M484 331h2M0 332h1M2 332h2M484 332h2M0 333h1M2 333h2M484 333h2M0 334h1M2 334h2M484 334h2M0 335h1M2 335h2M484 335h2M0 336h1M2 336h2M484 336h2M0 337h1M2 337h2M484 337h2M0 338h1M2 338h2M484 338h2M0 339h1M2 339h2M484 339h2M0 340h1M2 340h2M484 340h2M0 341h1M2 341h2M484 341h2M0 342h1M2 342h2M484 342h2M0 343h1M2 343h2M484 343h2M0 344h1M2 344h2M484 344h2M0 345h1M2 345h2M484 345h2M0 346h1M2 346h2M484 346h2M0 347h1M2 347h2M484 347h2M0 348h1M2 348h2M484 348h2M0 349h1M2 349h2M484 349h2M0 350h1M2 350h2M484 350h2M0 351h1M2 351h2M484 351h2M0 352h1M2 352h2M484 352h2M0 353h1M2 353h2M484 353h2M0 354h1M2 354h2M484 354h2M0 355h1M2 355h2M484 355h2M0 356h1M2 356h2M484 356h2M0 357h1M2 357h2M484 357h2M0 358h1M2 358h2M484 358h2M0 359h1M2 359h2M484 359h2M0 360h1M2 360h2M484 360h2M0 361h1M2 361h2M484 361h2M0 362h1M2 362h2M484 362h2M0 363h1M2 363h2M484 363h2M0 364h1M2 364h2M484 364h2M0 365h1M2 365h2M484 365h2M0 366h1M2 366h2M484 366h2M0 367h1M2 367h2M484 367h2M0 368h1M2 368h2M484 368h2M0 369h1M2 369h2M484 369h2M0 370h1M2 370h2M484 370h2M0 371h1M2 371h2M484 371h2M0 372h1M2 372h2M484 372h2M0 373h1M2 373h2M484 373h2M0 374h1M2 374h2M484 374h2M0 375h1M2 375h2M484 375h2M0 376h1M2 376h2M484 376h2M0 377h1M2 377h2M484 377h2M0 378h1M2 378h2M484 378h2M0 379h1M2 379h2M484 379h2M0 380h1M2 380h2M484 380h2M0 381h1M2 381h2M484 381h2M0 382h1M2 382h2M484 382h2M0 383h1M2 383h2M484 383h2M0 384h1M2 384h2M484 384h2M0 385h1M2 385h2M484 385h2M0 386h1M2 386h2M484 386h2M0 387h1M2 387h2M484 387h2M0 388h1M2 388h2M484 388h2M0 389h1M2 389h2M484 389h2M0 390h1M2 390h2M484 390h2M0 391h1M2 391h2M484 391h2M0 392h1M2 392h2M484 392h2M0 393h1M2 393h2M484 393h2M0 394h1M2 394h2M484 394h2M0 395h1M2 395h2M484 395h2M0 396h1M2 396h2M484 396h2M0 397h1M2 397h2M484 397h2M0 398h1M2 398h2M484 398h2M0 399h1M2 399h2M484 399h2M0 400h1M2 400h2M484 400h2M0 401h1M2 401h3M6 401h475M482 401h3M0 402h1M2 402h4M8 402h475M485 402h1M2 403h1M5 403h1M8 403h478M2 404h1M6 404h480M0 405h1M2 405h3M8 405h474M3 406h3M7 406h476M485 406h1M0 407h1M2 407h478M481 407h5M0 408h1M2 408h30M34 408h1M37 408h1M40 408h2M43 408h10M54 408h4M59 408h7M67 408h5M73 408h4M78 408h11M90 408h1M92 408h394M0 409h1M2 409h30M35 409h2M38 409h3M43 409h3M47 409h3M51 409h2M55 409h2M59 409h2M62 409h3M67 409h3M71 409h4M78 409h11M92 409h394M0 410h1M2 410h31M34 410h1M36 410h1M38 410h6M47 410h4M52 410h2M55 410h2M58 410h2M61 410h7M71 410h3M76 410h1M79 410h11M91 410h395M0 411h1M2 411h30M33 411h1M35 411h1M39 411h3M43 411h2M48 411h1M50 411h4M55 411h2M58 411h4M63 411h3M67 411h2M73 411h3M78 411h1M80 411h406M0 412h1M2 412h37M40 412h2M43 412h3M47 412h8M57 412h9M67 412h2M70 412h3M76 412h2M80 412h11M93 412h393M0 413h1M2 413h31M36 413h1M40 413h6M48 413h4M53 413h6M60 413h8M69 413h1M71 413h20M93 413h1M95 413h391M0 414h1M2 414h30M33 414h2M36 414h1M38 414h4M44 414h2M47 414h2M50 414h1M52 414h8M61 414h1M63 414h3M68 414h2M71 414h3M76 414h1M80 414h10M92 414h394M0 415h1M2 415h30M33 415h3M38 415h1M44 415h1M51 415h1M53 415h6M60 415h1M64 415h2M70 415h3M74 415h5M80 415h10M92 415h394M0 416h1M2 416h32M38 416h1M43 416h3M50 416h3M55 416h2M59 416h2M64 416h2M74 416h2M77 416h2M80 416h3M84 416h5M92 416h2M95 416h391M0 417h1M5 417h1M7 417h25M38 417h1M43 417h2M50 417h2M53 417h1M59 417h1M64 417h2M70 417h1M74 417h2M77 417h1M79 417h6M88 417h1M92 417h3M96 417h1M98 417h4M103 417h383M0 418h1M2 418h2M7 418h30M38 418h1M43 418h1M47 418h1M53 418h1M55 418h1M59 418h3M64 418h1M70 418h1M74 418h1M80 418h1M85 418h1M88 418h1M95 418h1M99 418h3M103 418h383M2 419h5M8 419h25M34 419h3M43 419h2M49 419h1M53 419h2M58 419h1M61 419h1M73 419h1M82 419h1M88 419h1M94 419h392M2 420h2M34 420h4M40 420h1M43 420h1M53 420h2M56 420h1M59 420h3M64 420h1M70 420h1M73 420h1M77 420h2M82 420h1M86 420h3M95 420h1M97 420h1M240 420h246M2 421h1M4 421h1M34 421h1M36 421h1M40 421h1M43 421h1M49 421h2M53 421h1M56 421h1M58 421h1M60 421h1M64 421h1M66 421h1M72 421h2M77 421h3M82 421h1M85 421h2M88 421h1M96 421h1M240 421h246M3 422h4M8 422h26M36 422h1M40 422h1M50 422h1M56 422h2M59 422h3M66 422h2M72 422h2M77 422h2M82 422h1M85 422h1M87 422h2M91 422h1M94 422h4M99 422h387M0 423h1M2 423h1M4 423h34M40 423h1M45 423h2M48 423h1M50 423h1M55 423h7M67 423h1M72 423h2M76 423h3M84 423h4M90 423h2M94 423h6M102 423h1M104 423h382M0 424h1M2 424h35M39 424h2M44 424h2M49 424h2M54 424h4M59 424h3M65 424h3M71 424h1M73 424h1M81 424h1M84 424h4M90 424h1M94 424h392M0 425h1M2 425h35M39 425h2M45 425h1M55 425h1M57 425h1M60 425h2M66 425h2M71 425h1M73 425h3M80 425h1M84 425h2M87 425h1M90 425h2M94 425h392M0 426h1M2 426h39M43 426h3M47 426h4M53 426h1M55 426h11M67 426h1M70 426h2M76 426h2M79 426h10M90 426h2M93 426h393M0 427h1M2 427h31M34 427h9M44 427h5M53 427h1M55 427h5M61 427h8M70 427h2M78 427h1M80 427h9M90 427h3M95 427h391M0 428h1M2 428h30M33 428h2M36 428h7M44 428h5M52 428h1M54 428h4M59 428h3M63 428h10M74 428h7M85 428h1M87 428h7M95 428h391M0 429h1M2 429h33M37 429h5M43 429h2M46 429h4M51 429h3M55 429h3M60 429h2M64 429h2M68 429h1M70 429h13M86 429h4M91 429h1M94 429h392M0 430h1M2 430h33M36 430h3M40 430h1M43 430h2M46 430h5M52 430h2M55 430h1M58 430h9M69 430h8M79 430h4M84 430h2M87 430h3M91 430h1M94 430h392M0 431h1M2 431h33M37 431h3M41 431h10M52 431h4M58 431h4M63 431h12M76 431h1M78 431h1M80 431h7M88 431h398M0 432h1M2 432h484M0 433h1M2 433h484M0 434h1M2 434h484M0 435h1M2 435h484M0 436h1M2 436h484M0 437h1M2 437h484M0 438h1M2 438h484M0 439h1M2 439h484M0 440h1M4 440h2M7 440h479M0 441h1M2 441h480M483 441h1M485 441h1M0 442h1" />
<path stroke="#c2c2c4" d="M13 0h1M19 0h1M34 23h1" />
<path stroke="#c4c2c3" d="M15 0h1M18 0h1" />
<path stroke="#c4c4c2" d="M23 0h1M37 22h1" />
<path stroke="#c2c4c3" d="M27 0h1M0 15h1M4 22h1M483 22h2" />
<path stroke="#c4c4c4" d="M484 0h1M34 22h1M484 23h1M6 24h1M481 24h1M3 25h1M7 25h1M480 25h1M484 25h1M5 29h1M2 30h1M6 30h1M481 30h1M485 30h1M481 401h1M485 401h1M6 402h1M484 402h1M0 403h1M4 403h1M7 403h1M3 404h1M6 405h1M483 405h1M485 405h1M2 406h1M484 406h1M480 407h1M33 408h1M35 408h2M39 408h1M42 408h1M72 408h1M77 408h1M32 409h1M34 409h1M41 409h1M50 409h1M53 409h1M58 409h1M61 409h1M66 409h1M70 409h1M76 409h1M89 409h1M91 409h1M33 410h1M37 410h1M44 410h1M46 410h1M51 410h1M54 410h1M57 410h1M60 410h1M69 410h1M75 410h1M77 410h1M90 410h1M32 411h1M36 411h1M38 411h1M42 411h1M45 411h1M49 411h1M62 411h1M70 411h2M77 411h1M46 412h1M66 412h1M69 412h1M73 412h1M75 412h1M78 412h2M92 412h1M34 413h1M37 413h1M39 413h1M70 413h1M91 413h1M94 413h1M35 414h1M42 414h1M46 414h1M67 414h1M74 414h1M78 414h1M32 415h1M37 415h1M43 415h1M45 415h1M66 415h1M79 415h1M34 416h1M36 416h1M53 416h1M58 416h1M70 416h1M76 416h1M89 416h1M2 417h1M4 417h1M6 417h1M35 417h1M37 417h1M54 417h1M57 417h1M61 417h1M76 417h1M85 417h1M87 417h1M97 417h1M5 418h1M52 418h1M58 418h1M75 418h1M81 418h1M92 418h1M96 418h1M98 418h1M102 418h1M33 419h1M37 419h1M40 419h1M60 419h1M65 419h1M70 419h1M74 419h1M91 419h1M0 420h1M4 420h1M46 420h1M49 420h1M57 420h1M93 420h2M96 420h1M37 421h1M59 421h1M61 421h1M67 421h1M95 421h1M97 421h1M0 422h1M35 422h1M46 422h1M76 422h1M86 422h1M98 422h1M49 423h1M66 423h1M100 423h1M48 424h1M49 425h1M56 425h1M58 425h1M72 425h1M42 426h1M54 426h1M68 426h2M73 426h1M75 426h1M89 426h1M92 426h1M33 427h1M72 427h1M74 427h1M76 427h1M94 427h1M32 428h1M35 428h1M43 428h1M58 428h1M73 428h1M82 428h1M36 429h1M59 429h1M62 429h1M66 429h1M83 429h1M85 429h1M93 429h1M35 430h1M39 430h1M42 430h1M54 430h1M57 430h1M67 430h1M78 430h1M90 430h1M92 430h1M36 431h1M40 431h1M56 431h1M62 431h1M77 431h1M79 431h1M87 431h1M2 440h1M6 440h1" />
<path stroke="#c4c4c6" d="M486 0h1M36 22h1M47 23h1" />
<path stroke="#010000" d="M487 0h1M487 23h1" />
<path stroke="#fffeff" d="M1 1h1M4 1h2M11 1h1M13 1h2M16 1h1M19 1h2M22 1h1M480 1h1M1 4h1M1 5h1M6 8h1M1 9h1M35 9h1M39 9h1M44 9h1M17 10h1M6 11h1M21 11h1M24 11h1M26 11h1M33 11h2M40 11h1M42 11h1M11 12h1M14 12h1M24 12h1M29 12h1M14 13h1M34 13h1M39 13h1M10 14h1M14 14h1M18 14h1M24 14h1M30 14h1M10 15h1M20 15h1M23 15h1M42 15h1M1 16h1" />
<path stroke="#fdfeff" d="M2 1h1M1 2h1M6 9h1" />
<path stroke="#fefffd" d="M3 1h1M1 3h1M7 7h1M21 9h1M38 9h1M38 10h1M20 11h1M30 11h1M43 11h1M23 12h1M39 12h1M27 14h1M40 17h1M1 22h1" />
<path stroke="#fefefc" d="M6 1h1M1 6h1M1 8h1M20 10h1M26 12h1M34 15h1" />
<path stroke="#fffffd" d="M7 1h1M17 1h1M30 1h1M481 1h1M1 7h1M9 7h1M20 7h1M23 7h1M11 8h1M5 9h1M16 9h1M5 10h1M23 10h1M1 11h1M5 11h1M31 11h1M1 12h1M15 12h1M17 12h1M27 12h1M1 13h1M11 13h1M23 13h2M33 13h1M42 13h1M11 14h1M23 14h1M31 14h1M1 15h1M7 15h2M16 15h1M21 15h1M24 15h1M29 15h1M1 17h1" />
<path stroke="#ffffff" d="M8 1h2M12 1h1M15 1h1M18 1h1M21 1h1M23 1h1M26 1h3M31 1h449M482 1h1M8 7h1M21 7h1M7 8h1M20 8h1M15 9h1M24 9h1M27 9h1M29 9h1M34 9h1M1 10h1M18 10h1M24 10h1M34 10h1M43 10h1M23 11h1M39 11h1M5 12h2M21 12h1M28 12h1M31 12h1M13 13h1M17 13h2M40 13h1M1 14h1M13 14h1M20 14h1M26 14h1M34 14h1M40 14h3M9 15h1M14 15h2M17 15h2M27 15h1M30 15h1M40 15h2M1 18h1M1 23h1M1 25h1M1 27h1M1 28h1M1 29h1M1 31h1M4 31h480M1 32h1M4 32h1M1 33h1M4 33h1M1 34h1M4 34h1M1 35h1M4 35h1M1 36h1M4 36h1M1 37h1M4 37h1M1 38h1M4 38h1M1 39h1M4 39h1M1 40h1M4 40h1M1 41h1M4 41h1M1 42h1M4 42h1M1 43h1M4 43h1M1 44h1M4 44h1M1 45h1M4 45h1M1 46h1M4 46h1M1 47h1M4 47h1M1 48h1M4 48h1M1 49h1M4 49h1M1 50h1M4 50h1M1 51h1M4 51h1M1 52h1M4 52h1M1 53h1M4 53h1M1 54h1M4 54h1M1 55h1M4 55h1M1 56h1M4 56h1M1 57h1M4 57h1M1 58h1M4 58h1M1 59h1M4 59h1M1 60h1M4 60h1M1 61h1M4 61h1M1 62h1M4 62h1M1 63h1M4 63h1M1 64h1M4 64h1M1 65h1M4 65h1M1 66h1M4 66h1M1 67h1M4 67h1M1 68h1M4 68h1M1 69h1M4 69h1M1 70h1M4 70h1M1 71h1M4 71h1M1 72h1M4 72h1M1 73h1M4 73h1M1 74h1M4 74h1M1 75h1M4 75h1M1 76h1M4 76h1M1 77h1M4 77h1M1 78h1M4 78h1M1 79h1M4 79h1M1 80h1M4 80h1M1 81h1M4 81h1M1 82h1M4 82h1M1 83h1M4 83h1M1 84h1M4 84h1M1 85h1M4 85h1M1 86h1M4 86h1M1 87h1M4 87h1M1 88h1M4 88h1M1 89h1M4 89h1M1 90h1M4 90h1M1 91h1M4 91h1M1 92h1M4 92h1M1 93h1M4 93h1M1 94h1M4 94h1M1 95h1M4 95h1M1 96h1M4 96h1M1 97h1M4 97h1M1 98h1M4 98h1M1 99h1M4 99h1M1 100h1M4 100h1M1 101h1M4 101h1M1 102h1M4 102h1M1 103h1M4 103h1M1 104h1M4 104h1M1 105h1M4 105h1M1 106h1M4 106h1M1 107h1M4 107h1M1 108h1M4 108h1M1 109h1M4 109h1M1 110h1M4 110h1M1 111h1M4 111h1M1 112h1M4 112h1M1 113h1M4 113h1M1 114h1M4 114h1M1 115h1M4 115h1M1 116h1M4 116h1M1 117h1M4 117h1M1 118h1M4 118h1M1 119h1M4 119h1M1 120h1M4 120h1M1 121h1M4 121h1M1 122h1M4 122h1M1 123h1M4 123h1M1 124h1M4 124h1M1 125h1M4 125h1M1 126h1M4 126h1M1 127h1M4 127h1M1 128h1M4 128h1M1 129h1M4 129h1M1 130h1M4 130h1M1 131h1M4 131h1M1 132h1M4 132h1M1 133h1M4 133h1M1 134h1M4 134h1M1 135h1M4 135h1M1 136h1M4 136h1M1 137h1M4 137h1M1 138h1M4 138h1M1 139h1M4 139h1M1 140h1M4 140h1M1 141h1M4 141h1M1 142h1M4 142h1M1 143h1M4 143h1M1 144h1M4 144h1M1 145h1M4 145h1M1 146h1M4 146h1M1 147h1M4 147h1M1 148h1M4 148h1M1 149h1M4 149h1M1 150h1M4 150h1M1 151h1M4 151h1M1 152h1M4 152h1M1 153h1M4 153h1M1 154h1M4 154h1M1 155h1M4 155h1M1 156h1M4 156h1M1 157h1M4 157h1M1 158h1M4 158h1M1 159h1M4 159h1M1 160h1M4 160h1M1 161h1M4 161h1M1 162h1M4 162h1M1 163h1M4 163h1M1 164h1M4 164h1M1 165h1M4 165h1M1 166h1M4 166h1M1 167h1M4 167h1M1 168h1M4 168h1M1 169h1M4 169h1M1 170h1M4 170h1M1 171h1M4 171h1M1 172h1M4 172h1M1 173h1M4 173h1M1 174h1M4 174h1M1 175h1M4 175h1M1 176h1M4 176h1M1 177h1M4 177h1M1 178h1M4 178h1M1 179h1M4 179h1M1 180h1M4 180h1M1 181h1M4 181h1M1 182h1M4 182h1M1 183h1M4 183h1M1 184h1M4 184h1M1 185h1M4 185h1M1 186h1M4 186h1M1 187h1M4 187h1M1 188h1M4 188h1M1 189h1M4 189h1M1 190h1M4 190h1M1 191h1M4 191h1M1 192h1M4 192h1M1 193h1M4 193h1M1 194h1M4 194h1M1 195h1M4 195h1M1 196h1M4 196h1M1 197h1M4 197h1M1 198h1M4 198h1M1 199h1M4 199h1M1 200h1M4 200h1M1 201h1M4 201h1M1 202h1M4 202h1M1 203h1M4 203h1M1 204h1M4 204h1M1 205h1M4 205h1M1 206h1M4 206h1M1 207h1M4 207h1M1 208h1M4 208h1M1 209h1M4 209h1M1 210h1M4 210h1M1 211h1M4 211h1M1 212h1M4 212h1M1 213h1M4 213h1M1 214h1M4 214h1M1 215h1M4 215h1M1 216h1M4 216h1M1 217h1M4 217h1M1 218h1M4 218h1M1 219h1M4 219h1M1 220h1M4 220h1M1 221h1M4 221h1M1 222h1M4 222h1M1 223h1M4 223h1M1 224h1M4 224h1M1 225h1M4 225h1M1 226h1M4 226h1M1 227h1M4 227h1M1 228h1M4 228h1M1 229h1M4 229h1M1 230h1M4 230h1M1 231h1M4 231h1M1 232h1M4 232h1M1 233h1M4 233h1M1 234h1M4 234h1M1 235h1M4 235h1M1 236h1M4 236h1M1 237h1M4 237h1M1 238h1M4 238h1M1 239h1M4 239h1M1 240h1M4 240h1M1 241h1M4 241h1M1 242h1M4 242h1M1 243h1M4 243h1M1 244h1M4 244h1M1 245h1M4 245h1M1 246h1M4 246h1M1 247h1M4 247h1M1 248h1M4 248h1M1 249h1M4 249h1M1 250h1M4 250h1M1 251h1M4 251h1M1 252h1M4 252h1M1 253h1M4 253h1M1 254h1M4 254h1M1 255h1M4 255h1M1 256h1M4 256h1M1 257h1M4 257h1M1 258h1M4 258h1M1 259h1M4 259h1M1 260h1M4 260h1M1 261h1M4 261h1M1 262h1M4 262h1M1 263h1M4 263h1M1 264h1M4 264h1M1 265h1M4 265h1M1 266h1M4 266h1M1 267h1M4 267h1M1 268h1M4 268h1M1 269h1M4 269h1M1 270h1M4 270h1M1 271h1M4 271h1M1 272h1M4 272h1M1 273h1M4 273h1M1 274h1M4 274h1M1 275h1M4 275h1M1 276h1M4 276h1M1 277h1M4 277h1M1 278h1M4 278h1M1 279h1M4 279h1M1 280h1M4 280h1M1 281h1M4 281h1M1 282h1M4 282h1M1 283h1M4 283h1M1 284h1M4 284h1M1 285h1M4 285h1M1 286h1M4 286h1M1 287h1M4 287h1M1 288h1M4 288h1M1 289h1M4 289h1M1 290h1M4 290h1M1 291h1M4 291h1M1 292h1M4 292h1M1 293h1M4 293h1M1 294h1M4 294h1M1 295h1M4 295h1M1 296h1M4 296h1M1 297h1M4 297h1M1 298h1M4 298h1M1 299h1M4 299h1M1 300h1M4 300h1M1 301h1M4 301h1M1 302h1M4 302h1M1 303h1M4 303h1M1 304h1M4 304h1M1 305h1M4 305h1M1 306h1M4 306h1M1 307h1M4 307h1M1 308h1M4 308h1M1 309h1M4 309h1M1 310h1M4 310h1M1 311h1M4 311h1M1 312h1M4 312h1M1 313h1M4 313h1M1 314h1M4 314h1M1 315h1M4 315h1M1 316h1M4 316h1M1 317h1M4 317h1M1 318h1M4 318h1M1 319h1M4 319h1M1 320h1M4 320h1M1 321h1M4 321h1M1 322h1M4 322h1M1 323h1M4 323h1M1 324h1M4 324h1M1 325h1M4 325h1M1 326h1M4 326h1M1 327h1M4 327h1M1 328h1M4 328h1M1 329h1M4 329h1M1 330h1M4 330h1M1 331h1M4 331h1M1 332h1M4 332h1M1 333h1M4 333h1M1 334h1M4 334h1M1 335h1M4 335h1M1 336h1M4 336h1M1 337h1M4 337h1M1 338h1M4 338h1M1 339h1M4 339h1M1 340h1M4 340h1M1 341h1M4 341h1M1 342h1M4 342h1M1 343h1M4 343h1M1 344h1M4 344h1M1 345h1M4 345h1M1 346h1M4 346h1M1 347h1M4 347h1M1 348h1M4 348h1M1 349h1M4 349h1M1 350h1M4 350h1M1 351h1M4 351h1M1 352h1M4 352h1M1 353h1M4 353h1M1 354h1M4 354h1M1 355h1M4 355h1M1 356h1M4 356h1M1 357h1M4 357h1M1 358h1M4 358h1M1 359h1M4 359h1M1 360h1M4 360h1M1 361h1M4 361h1M1 362h1M4 362h1M1 363h1M4 363h1M1 364h1M4 364h1M1 365h1M4 365h1M1 366h1M4 366h1M1 367h1M4 367h1M1 368h1M4 368h1M1 369h1M4 369h1M1 370h1M4 370h1M1 371h1M4 371h1M1 372h1M4 372h1M1 373h1M4 373h1M1 374h1M4 374h1M1 375h1M4 375h1M1 376h1M4 376h1M1 377h1M4 377h1M1 378h1M4 378h1M1 379h1M4 379h1M1 380h1M4 380h1M1 381h1M4 381h1M1 382h1M4 382h1M1 383h1M4 383h1M1 384h1M4 384h1M1 385h1M4 385h1M1 386h1M4 386h1M1 387h1M4 387h1M1 388h1M4 388h1M1 389h1M4 389h1M1 390h1M4 390h1M1 391h1M4 391h1M1 392h1M4 392h1M1 393h1M4 393h1M1 394h1M4 394h1M1 395h1M4 395h1M1 396h1M4 396h1M1 397h1M4 397h1M1 398h1M4 398h1M1 399h1M4 399h1M1 400h1M4 400h1M1 402h1M1 403h1M1 404h1M1 405h1M1 406h1M1 407h1M1 408h1M1 409h1M1 410h1M1 411h1M1 412h1M1 413h1M1 414h1M1 415h1M1 416h1M1 417h1M1 418h1M1 419h1M1 421h1M1 422h1M1 423h1M1 424h1M1 425h1M1 426h1M1 427h1M1 428h1M1 429h1M1 430h1M1 431h1M1 432h1M1 433h1M1 434h1M1 435h1M1 436h1M1 437h1M1 438h1M1 439h1M1 441h1" />
<path stroke="#fffdff" d="M10 1h1M20 9h1M43 9h1M39 10h1M6 13h1M40 16h1M39 17h1" />
<path stroke="#feffff" d="M24 1h2M483 1h1M485 1h1M10 8h1M23 8h2M17 9h1M23 9h1M30 9h1M6 10h1M27 10h1M30 10h1M33 10h1M10 11h1M15 11h2M18 11h1M27 11h1M34 12h1M40 12h1M42 12h1M10 13h1M20 13h1M26 13h1M7 14h1M21 14h1M33 15h1M1 19h1M1 20h1M1 21h1" />
<path stroke="#fefeff" d="M29 1h1M13 10h1M21 10h1M20 12h1M30 12h1M43 12h1M33 14h1" />
<path stroke="#fdfffe" d="M484 1h1M10 12h1" />
<path stroke="#80827f" d="M486 1h1" />
<path stroke="#000002" d="M487 1h1M487 7h1M487 16h1M487 19h1M487 21h1M487 22h1" />
<path stroke="#625fa4" d="M2 2h1M20 2h1" />
<path stroke="#6061a2" d="M3 2h1M17 2h1M25 2h1M483 2h1M2 3h1M485 4h1M2 11h1M40 21h1" />
<path stroke="#615ea1" d="M4 2h1M2 4h1" />
<path stroke="#6161a1" d="M5 2h1M8 2h1M2 5h1" />
<path stroke="#6162a3" d="M6 2h1M2 6h1" />
<path stroke="#605fa1" d="M7 2h1M21 2h1M28 2h1M30 2h1M482 2h1M484 2h1M485 5h1M2 7h1M2 15h1M5 21h1M38 21h1M482 21h1" />
<path stroke="#605da2" d="M9 2h1" />
<path stroke="#61619f" d="M10 2h1" />
<path stroke="#5f60a0" d="M11 2h2M19 2h1" />
<path stroke="#6061a4" d="M13 2h1M33 21h1M46 21h1" />
<path stroke="#5f60a3" d="M14 2h1" />
<path stroke="#6061a1" d="M15 2h1M22 2h1M26 2h1M35 21h1" />
<path stroke="#5f5fa5" d="M16 2h1" />
<path stroke="#60629f" d="M18 2h1" />
<path stroke="#615ea3" d="M23 2h1" />
<path stroke="#6160a4" d="M24 2h1M480 2h1M485 6h1M485 7h1M2 16h1M485 16h1M2 17h1M485 17h1M6 21h2M39 21h1M480 21h2" />
<path stroke="#605fa3" d="M27 2h1M31 2h1M481 2h1M36 21h1" />
<path stroke="#6163a0" d="M29 2h1" />
<path stroke="#6160a2" d="M32 2h448M485 3h1M2 8h1M485 8h1M485 9h1M2 10h1M485 10h1M485 11h1M485 12h1M485 13h1M485 14h1M485 15h1M2 18h1M485 18h1M2 20h1M485 20h1M3 21h1M8 21h25M37 21h1M42 21h1M47 21h433M484 21h1" />
<path stroke="#635ea1" d="M485 2h1" />
<path stroke="#818284" d="M486 2h1" />
<path stroke="#010103" d="M487 2h1M487 4h1" />
<path stroke="#00007e" d="M3 3h1M12 10h1" />
<path stroke="#000082" d="M4 3h2M8 3h2M11 3h1M21 3h1M27 3h1M30 3h1M32 3h448M482 3h2M3 4h1M9 4h1M14 4h1M24 4h1M31 4h450M3 5h1M13 5h1M15 5h1M21 5h1M23 5h1M8 6h1M11 6h1M18 6h1M29 6h1M32 6h448M484 6h1M22 7h1M5 8h1M25 8h1M27 8h2M39 8h1M48 8h432M481 8h1M483 8h2M7 9h1M9 9h1M11 9h1M26 9h1M47 9h433M481 9h1M483 9h2M48 10h432M481 10h1M483 10h2M35 11h1M41 11h1M46 11h1M48 11h432M481 11h1M483 11h2M12 12h1M48 12h432M481 12h1M483 12h2M7 13h1M28 13h1M32 13h1M48 13h432M481 13h1M483 13h2M9 14h1M16 14h1M36 14h1M46 14h1M48 14h432M481 14h1M483 14h2M3 15h1M11 15h2M43 15h2M47 15h433M481 15h1M483 15h2M4 16h1M36 16h2M39 16h1M45 16h1M47 16h1M483 16h1M8 17h24M44 17h1M48 17h432M3 18h1M34 18h1M46 18h1M484 18h1M7 19h25M36 19h1M38 19h1M48 19h433M5 20h1M8 20h24M37 20h1M48 20h432M482 20h1" />
<path stroke="#00007f" d="M6 3h1M22 3h1M25 3h1M480 3h1M12 4h1M28 4h1M481 4h1M6 5h1M30 5h1M3 6h1M5 6h1M28 6h1M10 9h1M4 10h1M36 10h1M47 12h1M16 13h1M29 14h1M5 17h1M32 17h1M482 17h1M6 18h1M481 18h1" />
<path stroke="#020085" d="M7 3h1M3 7h1" />
<path stroke="#010185" d="M10 3h1M19 4h1M21 4h1M19 9h1M14 10h1M4 18h1" />
<path stroke="#000180" d="M12 3h1M7 5h1M14 5h1M31 6h1M483 6h1M5 7h1M484 7h1M13 8h1M35 8h1M8 9h1M40 10h1M22 11h1M28 11h1M32 11h1M41 12h1M9 13h1M38 13h1M47 13h1M44 14h2M37 15h1M3 16h1M32 16h1M34 16h1M46 16h1M484 16h1M4 17h1M483 17h1M35 18h1M41 18h1M47 18h1M6 19h1M34 19h2M39 19h1M481 19h1M7 20h1M41 20h1M480 20h1" />
<path stroke="#000081" d="M13 3h1M17 3h1M19 3h1M31 3h1M4 4h1M16 4h1M8 5h1M17 5h1M480 5h1M482 5h1M12 6h1M14 6h1M25 6h1M18 7h1M483 7h1M17 8h1M19 8h1M34 8h1M44 8h1M13 9h1M42 9h1M41 10h1M47 10h1M13 11h1M4 12h1M16 12h1M37 12h1M3 13h1M19 13h1M25 13h1M31 13h1M35 13h1M5 14h1M43 14h1M13 15h1M32 15h1M39 15h1M38 16h1M3 17h1M33 17h1M36 17h1M484 17h1M43 18h1M42 19h1M45 19h1M47 19h1M6 20h1M481 20h1" />
<path stroke="#01007f" d="M14 3h1M11 7h1M480 7h1M45 9h1M45 15h1M7 16h1M480 16h1M33 19h1" />
<path stroke="#010081" d="M15 3h1M9 6h1M46 9h1M44 13h1" />
<path stroke="#010082" d="M16 3h1M18 3h1M484 3h1M7 4h2M23 4h1M26 4h1M19 5h1M28 5h1M31 5h449M13 6h1M21 6h1M4 7h1M13 7h1M32 7h448M482 7h1M12 8h1M14 8h1M31 8h1M33 8h1M40 8h1M47 8h1M480 8h1M482 8h1M3 9h1M32 9h1M480 9h1M482 9h1M3 10h1M7 10h1M28 10h2M480 10h1M482 10h1M45 11h1M480 11h1M482 11h1M3 12h1M19 12h1M38 12h1M480 12h1M482 12h1M4 13h1M8 13h1M37 13h1M480 13h1M482 13h1M3 14h1M25 14h1M28 14h1M480 14h1M482 14h1M6 15h1M19 15h1M35 15h1M480 15h1M482 15h1M5 16h1M8 16h24M42 16h1M48 16h432M482 16h1M45 17h1M5 18h1M8 18h24M48 18h433M482 18h1M32 19h1M3 20h1M39 20h1M44 20h1M47 20h1M484 20h1" />
<path stroke="#000182" d="M20 3h1M16 5h1M24 5h1M22 6h1M15 7h1M25 10h1M7 11h1M47 11h1M39 18h1M32 20h1" />
<path stroke="#010281" d="M23 3h1M25 5h1M19 14h1" />
<path stroke="#020082" d="M24 3h1M15 4h1M7 6h1M24 6h1M6 7h1M14 7h1M28 7h1M16 8h1M37 8h1M22 9h1M22 13h1M46 13h1M44 16h1M41 19h1M44 19h1M40 20h1M43 20h1" />
<path stroke="#000084" d="M26 3h1M10 4h1M13 4h1M22 4h1M482 4h1M15 6h1M23 6h1M480 6h1M19 7h1M29 7h1M4 8h1M22 8h1M45 8h2M4 9h1M31 9h1M8 10h1M3 11h1M37 11h1M44 11h1M9 12h1M30 13h1M45 13h1M8 14h1M35 14h1M39 14h1M47 14h1M5 15h1M26 15h1M6 16h1M33 16h1M35 16h1M481 16h1M7 17h1M35 17h1M42 17h1M46 17h1M480 17h1M32 18h2M483 18h1M5 19h1M482 19h2M36 20h1" />
<path stroke="#010183" d="M28 3h1M481 3h1M9 5h1M484 5h1M27 7h1M18 8h1M12 11h1M36 13h1M31 15h1M42 18h1M3 19h1M46 19h1M484 19h1M4 20h1M38 20h1M483 20h1" />
<path stroke="#000083" d="M29 3h1M29 4h1M483 5h1M481 7h1M9 8h1M18 9h1M22 10h1M19 11h1M29 11h1M7 12h1M13 12h1M36 12h1M45 12h1M29 13h1M37 14h2M4 15h1M36 15h1M38 18h1M44 18h1M37 19h1M46 20h1" />
<path stroke="#818382" d="M486 3h1M486 4h1M486 20h1" />
<path stroke="#000000" d="M487 3h1M487 5h1M487 6h1M487 8h1M487 9h1M487 10h1M487 11h1M487 12h1M487 13h1M487 14h1M487 15h1M487 17h1M487 18h1M487 20h1M487 24h1M487 25h1M487 26h1M487 27h1M487 29h1M487 30h1M487 31h1M5 32h478M487 32h1M5 33h478M487 33h1M5 34h478M487 34h1M5 35h478M487 35h1M5 36h478M487 36h1M5 37h478M487 37h1M5 38h478M487 38h1M5 39h478M487 39h1M5 40h478M487 40h1M5 41h478M487 41h1M5 42h478M487 42h1M5 43h478M487 43h1M5 44h478M487 44h1M5 45h478M487 45h1M5 46h478M487 46h1M5 47h478M487 47h1M5 48h478M487 48h1M5 49h478M487 49h1M5 50h478M487 50h1M5 51h478M487 51h1M5 52h478M487 52h1M5 53h478M487 53h1M5 54h478M487 54h1M5 55h478M487 55h1M5 56h478M487 56h1M5 57h478M487 57h1M5 58h478M487 58h1M5 59h478M487 59h1M5 60h478M487 60h1M5 61h478M487 61h1M5 62h478M487 62h1M5 63h478M487 63h1M5 64h478M487 64h1M5 65h478M487 65h1M5 66h478M487 66h1M5 67h478M487 67h1M5 68h478M487 68h1M5 69h478M487 69h1M5 70h478M487 70h1M5 71h478M487 71h1M5 72h478M487 72h1M5 73h478M487 73h1M5 74h478M487 74h1M5 75h478M487 75h1M5 76h478M487 76h1M5 77h478M487 77h1M5 78h478M487 78h1M5 79h478M487 79h1M5 80h478M487 80h1M5 81h478M487 81h1M5 82h478M487 82h1M5 83h478M487 83h1M5 84h478M487 84h1M5 85h478M487 85h1M5 86h478M487 86h1M5 87h478M487 87h1M5 88h478M487 88h1M5 89h478M487 89h1M5 90h478M487 90h1M5 91h478M487 91h1M5 92h478M487 92h1M5 93h478M487 93h1M5 94h478M487 94h1M5 95h478M487 95h1M5 96h478M487 96h1M5 97h478M487 97h1M5 98h478M487 98h1M5 99h478M487 99h1M5 100h478M487 100h1M5 101h478M487 101h1M5 102h478M487 102h1M5 103h478M487 103h1M5 104h478M487 104h1M5 105h478M487 105h1M5 106h478M487 106h1M5 107h478M487 107h1M5 108h478M487 108h1M5 109h478M487 109h1M5 110h478M487 110h1M5 111h478M487 111h1M5 112h478M487 112h1M5 113h478M487 113h1M5 114h478M487 114h1M5 115h478M487 115h1M5 116h478M487 116h1M5 117h478M487 117h1M5 118h478M487 118h1M5 119h478M487 119h1M5 120h478M487 120h1M5 121h478M487 121h1M5 122h478M487 122h1M5 123h478M487 123h1M5 124h478M487 124h1M5 125h478M487 125h1M5 126h478M487 126h1M5 127h478M487 127h1M5 128h478M487 128h1M5 129h478M487 129h1M5 130h478M487 130h1M5 131h478M487 131h1M5 132h478M487 132h1M5 133h478M487 133h1M5 134h478M487 134h1M5 135h478M487 135h1M5 136h478M487 136h1M5 137h478M487 137h1M5 138h478M487 138h1M5 139h478M487 139h1M5 140h478M487 140h1M5 141h478M487 141h1M5 142h478M487 142h1M5 143h478M487 143h1M5 144h478M487 144h1M5 145h478M487 145h1M5 146h478M487 146h1M5 147h478M487 147h1M5 148h478M487 148h1M5 149h478M487 149h1M5 150h478M487 150h1M5 151h478M487 151h1M5 152h478M487 152h1M5 153h478M487 153h1M5 154h478M487 154h1M5 155h478M487 155h1M5 156h478M487 156h1M5 157h478M487 157h1M5 158h478M487 158h1M5 159h478M487 159h1M5 160h478M487 160h1M5 161h478M487 161h1M5 162h478M487 162h1M5 163h478M487 163h1M5 164h478M487 164h1M5 165h478M487 165h1M5 166h478M487 166h1M5 167h478M487 167h1M5 168h478M487 168h1M5 169h478M487 169h1M5 170h478M487 170h1M5 171h478M487 171h1M5 172h478M487 172h1M5 173h478M487 173h1M5 174h478M487 174h1M5 175h478M487 175h1M5 176h478M487 176h1M5 177h478M487 177h1M5 178h478M487 178h1M5 179h478M487 179h1M5 180h478M487 180h1M5 181h478M487 181h1M5 182h478M487 182h1M5 183h478M487 183h1M5 184h478M487 184h1M5 185h478M487 185h1M5 186h478M487 186h1M5 187h478M487 187h1M5 188h478M487 188h1M5 189h478M487 189h1M5 190h478M487 190h1M5 191h478M487 191h1M5 192h478M487 192h1M5 193h478M487 193h1M5 194h478M487 194h1M5 195h478M487 195h1M5 196h478M487 196h1M5 197h478M487 197h1M5 198h478M487 198h1M5 199h478M487 199h1M5 200h478M487 200h1M5 201h478M487 201h1M5 202h478M487 202h1M5 203h478M487 203h1M5 204h478M487 204h1M5 205h478M487 205h1M5 206h478M487 206h1M5 207h478M487 207h1M5 208h478M487 208h1M5 209h478M487 209h1M5 210h478M487 210h1M5 211h478M487 211h1M5 212h478M487 212h1M5 213h478M487 213h1M5 214h478M487 214h1M5 215h478M487 215h1M5 216h478M487 216h1M5 217h478M487 217h1M5 218h478M487 218h1M5 219h478M487 219h1M5 220h478M487 220h1M5 221h478M487 221h1M5 222h478M487 222h1M5 223h478M487 223h1M5 224h478M487 224h1M5 225h478M487 225h1M5 226h478M487 226h1M5 227h478M487 227h1M5 228h478M487 228h1M5 229h478M487 229h1M5 230h478M487 230h1M5 231h478M487 231h1M5 232h478M487 232h1M5 233h478M487 233h1M5 234h478M487 234h1M5 235h478M487 235h1M5 236h478M487 236h1M5 237h478M487 237h1M5 238h478M487 238h1M5 239h478M487 239h1M5 240h478M487 240h1M5 241h478M487 241h1M5 242h478M487 242h1M5 243h478M487 243h1M5 244h478M487 244h1M5 245h478M487 245h1M5 246h478M487 246h1M5 247h478M487 247h1M5 248h478M487 248h1M5 249h478M487 249h1M5 250h478M487 250h1M5 251h478M487 251h1M5 252h478M487 252h1M5 253h478M487 253h1M5 254h478M487 254h1M5 255h478M487 255h1M5 256h478M487 256h1M5 257h478M487 257h1M5 258h478M487 258h1M5 259h478M487 259h1M5 260h478M487 260h1M5 261h478M487 261h1M5 262h478M487 262h1M5 263h478M487 263h1M5 264h478M487 264h1M5 265h478M487 265h1M5 266h478M487 266h1M5 267h478M487 267h1M5 268h478M487 268h1M5 269h478M487 269h1M5 270h478M487 270h1M5 271h478M487 271h1M5 272h478M487 272h1M5 273h478M487 273h1M5 274h478M487 274h1M5 275h478M487 275h1M5 276h478M487 276h1M5 277h478M487 277h1M5 278h478M487 278h1M5 279h478M487 279h1M5 280h478M487 280h1M5 281h478M487 281h1M5 282h478M487 282h1M5 283h478M487 283h1M5 284h478M487 284h1M5 285h478M487 285h1M5 286h478M487 286h1M5 287h478M487 287h1M5 288h478M487 288h1M5 289h478M487 289h1M5 290h478M487 290h1M5 291h478M487 291h1M5 292h478M487 292h1M5 293h478M487 293h1M5 294h478M487 294h1M5 295h478M487 295h1M5 296h478M487 296h1M5 297h478M487 297h1M5 298h478M487 298h1M5 299h478M487 299h1M5 300h478M487 300h1M5 301h478M487 301h1M5 302h478M487 302h1M5 303h478M487 303h1M5 304h478M487 304h1M5 305h478M487 305h1M5 306h478M487 306h1M5 307h478M487 307h1M5 308h478M487 308h1M5 309h478M487 309h1M5 310h478M487 310h1M5 311h478M487 311h1M5 312h478M487 312h1M5 313h478M487 313h1M5 314h478M487 314h1M5 315h478M487 315h1M5 316h478M487 316h1M5 317h478M487 317h1M5 318h478M487 318h1M5 319h478M487 319h1M5 320h478M487 320h1M5 321h478M487 321h1M5 322h478M487 322h1M5 323h478M487 323h1M5 324h478M487 324h1M5 325h478M487 325h1M5 326h478M487 326h1M5 327h478M487 327h1M5 328h478M487 328h1M5 329h478M487 329h1M5 330h478M487 330h1M5 331h478M487 331h1M5 332h478M487 332h1M5 333h478M487 333h1M5 334h478M487 334h1M5 335h478M487 335h1M5 336h478M487 336h1M5 337h478M487 337h1M5 338h478M487 338h1M5 339h478M487 339h1M5 340h478M487 340h1M5 341h478M487 341h1M5 342h478M487 342h1M5 343h478M487 343h1M5 344h478M487 344h1M5 345h478M487 345h1M5 346h478M487 346h1M5 347h478M487 347h1M5 348h478M487 348h1M5 349h478M487 349h1M5 350h478M487 350h1M5 351h478M487 351h1M5 352h478M487 352h1M5 353h478M487 353h1M5 354h478M487 354h1M5 355h478M487 355h1M5 356h478M487 356h1M5 357h478M487 357h1M5 358h478M487 358h1M5 359h478M487 359h1M5 360h478M487 360h1M5 361h478M487 361h1M5 362h478M487 362h1M5 363h478M487 363h1M5 364h478M487 364h1M5 365h478M487 365h1M5 366h478M487 366h1M5 367h478M487 367h1M5 368h478M487 368h1M5 369h478M487 369h1M5 370h478M487 370h1M5 371h478M487 371h1M5 372h478M487 372h1M5 373h478M487 373h1M5 374h478M487 374h1M5 375h478M487 375h1M5 376h478M487 376h1M5 377h478M487 377h1M5 378h478M487 378h1M5 379h478M487 379h1M5 380h478M487 380h1M5 381h478M487 381h1M5 382h478M487 382h1M5 383h478M487 383h1M5 384h478M487 384h1M5 385h478M487 385h1M5 386h478M487 386h1M5 387h478M487 387h1M5 388h478M487 388h1M5 389h478M487 389h1M5 390h478M487 390h1M5 391h478M487 391h1M5 392h478M487 392h1M5 393h478M487 393h1M5 394h478M487 394h1M5 395h478M487 395h1M5 396h478M487 396h1M5 397h478M487 397h1M5 398h478M487 398h1M5 399h478M487 399h1M487 400h1M487 401h1M487 402h1M487 403h1M487 404h1M487 405h1M487 406h1M487 407h1M487 408h1M487 409h1M487 410h1M487 411h1M487 412h1M487 413h1M487 414h1M39 415h4M46 415h3M63 415h1M67 415h1M69 415h1M73 415h1M90 415h1M487 415h1M39 416h4M46 416h4M62 416h2M67 416h3M72 416h2M90 416h2M487 416h1M39 417h2M42 417h1M46 417h3M62 417h2M67 417h1M69 417h1M72 417h1M90 417h2M487 417h1M39 418h4M45 418h2M51 418h1M57 418h1M62 418h1M66 418h4M76 418h4M83 418h2M87 418h1M89 418h1M93 418h2M487 418h1M38 419h2M41 419h2M45 419h4M50 419h2M55 419h2M62 419h2M66 419h1M68 419h2M71 419h2M75 419h2M78 419h4M83 419h5M90 419h1M92 419h2M487 419h1M38 420h2M41 420h2M45 420h1M47 420h2M51 420h2M55 420h1M63 420h1M65 420h2M69 420h1M71 420h2M74 420h3M80 420h2M83 420h1M85 420h1M89 420h4M487 420h1M38 421h2M44 421h1M47 421h1M51 421h2M54 421h2M62 421h2M65 421h1M68 421h4M74 421h2M80 421h2M84 421h1M89 421h3M487 421h1M38 422h2M41 422h3M47 422h2M51 422h2M63 422h3M68 422h2M71 422h1M74 422h2M81 422h1M83 422h2M89 422h2M92 422h2M487 422h1M38 423h2M42 423h3M47 423h1M51 423h4M62 423h4M69 423h3M74 423h2M79 423h5M88 423h2M92 423h2M487 423h1M37 424h2M41 424h3M46 424h2M51 424h3M62 424h3M68 424h3M74 424h7M82 424h2M88 424h2M93 424h1M487 424h1M37 425h2M42 425h2M47 425h1M51 425h1M53 425h1M62 425h3M68 425h2M76 425h2M79 425h1M83 425h1M88 425h2M92 425h2M487 425h1M51 426h2M487 426h1M49 427h4M487 427h1M49 428h3M487 428h1M487 429h1M487 430h1M487 431h1M487 432h1M487 433h1M487 434h1M487 435h1M487 436h1M487 437h1M487 438h1M487 439h1M487 440h1M487 441h1M487 442h1M0 443h488M0 444h488" />
<path stroke="#010080" d="M5 4h1M25 4h1M30 4h1M4 5h1M11 5h1M18 5h1M29 5h1M20 6h1M27 6h1M482 6h1M29 8h1M32 8h1M38 8h1M9 10h2M15 10h1M37 10h1M14 11h1M25 11h1M32 12h1M46 12h1M4 14h1M15 14h1M22 15h1M38 15h1M40 18h1M43 19h1" />
<path stroke="#010084" d="M6 4h1M17 4h1M10 5h1M20 5h1M4 6h1M31 7h1M8 8h1M15 8h1M30 8h1M43 8h1M46 10h1M8 11h1M12 14h1M25 15h1M46 15h1M47 17h1M36 18h1M33 20h1M42 20h1" />
<path stroke="#010086" d="M11 4h1M26 8h1M4 11h1" />
<path stroke="#000080" d="M18 4h1M484 4h1" />
<path stroke="#000085" d="M20 4h1M16 10h1M4 19h1" />
<path stroke="#000086" d="M27 4h1M483 4h1M481 6h1M40 9h1M32 10h1M25 12h1M6 17h1M481 17h1" />
<path stroke="#020080" d="M5 5h1M10 6h1M19 6h1M16 7h1M19 10h1M8 12h1M35 12h1" />
<path stroke="#020183" d="M12 5h1M22 5h1M12 9h1M41 9h1M42 10h1M36 11h1M7 18h1" />
<path stroke="#010083" d="M26 5h1M34 20h1" />
<path stroke="#030083" d="M27 5h1M44 12h1M45 18h1" />
<path stroke="#020181" d="M481 5h1M37 18h1" />
<path stroke="#828282" d="M486 5h1M486 8h1M486 9h1M486 10h1M486 11h1M486 12h1M486 13h1M486 14h1M486 15h1M486 18h1M486 26h1M486 27h1M486 28h1M486 29h1M486 31h1M483 32h1M486 32h1M483 33h1M486 33h1M483 34h1M486 34h1M483 35h1M486 35h1M483 36h1M486 36h1M483 37h1M486 37h1M483 38h1M486 38h1M483 39h1M486 39h1M483 40h1M486 40h1M483 41h1M486 41h1M483 42h1M486 42h1M483 43h1M486 43h1M483 44h1M486 44h1M483 45h1M486 45h1M483 46h1M486 46h1M483 47h1M486 47h1M483 48h1M486 48h1M483 49h1M486 49h1M483 50h1M486 50h1M483 51h1M486 51h1M483 52h1M486 52h1M483 53h1M486 53h1M483 54h1M486 54h1M483 55h1M486 55h1M483 56h1M486 56h1M483 57h1M486 57h1M483 58h1M486 58h1M483 59h1M486 59h1M483 60h1M486 60h1M483 61h1M486 61h1M483 62h1M486 62h1M483 63h1M486 63h1M483 64h1M486 64h1M483 65h1M486 65h1M483 66h1M486 66h1M483 67h1M486 67h1M483 68h1M486 68h1M483 69h1M486 69h1M483 70h1M486 70h1M483 71h1M486 71h1M483 72h1M486 72h1M483 73h1M486 73h1M483 74h1M486 74h1M483 75h1M486 75h1M483 76h1M486 76h1M483 77h1M486 77h1M483 78h1M486 78h1M483 79h1M486 79h1M483 80h1M486 80h1M483 81h1M486 81h1M483 82h1M486 82h1M483 83h1M486 83h1M483 84h1M486 84h1M483 85h1M486 85h1M483 86h1M486 86h1M483 87h1M486 87h1M483 88h1M486 88h1M483 89h1M486 89h1M483 90h1M486 90h1M483 91h1M486 91h1M483 92h1M486 92h1M483 93h1M486 93h1M483 94h1M486 94h1M483 95h1M486 95h1M483 96h1M486 96h1M483 97h1M486 97h1M483 98h1M486 98h1M483 99h1M486 99h1M483 100h1M486 100h1M483 101h1M486 101h1M483 102h1M486 102h1M483 103h1M486 103h1M483 104h1M486 104h1M483 105h1M486 105h1M483 106h1M486 106h1M483 107h1M486 107h1M483 108h1M486 108h1M483 109h1M486 109h1M483 110h1M486 110h1M483 111h1M486 111h1M483 112h1M486 112h1M483 113h1M486 113h1M483 114h1M486 114h1M483 115h1M486 115h1M483 116h1M486 116h1M483 117h1M486 117h1M483 118h1M486 118h1M483 119h1M486 119h1M483 120h1M486 120h1M483 121h1M486 121h1M483 122h1M486 122h1M483 123h1M486 123h1M483 124h1M486 124h1M483 125h1M486 125h1M483 126h1M486 126h1M483 127h1M486 127h1M483 128h1M486 128h1M483 129h1M486 129h1M483 130h1M486 130h1M483 131h1M486 131h1M483 132h1M486 132h1M483 133h1M486 133h1M483 134h1M486 134h1M483 135h1M486 135h1M483 136h1M486 136h1M483 137h1M486 137h1M483 138h1M486 138h1M483 139h1M486 139h1M483 140h1M486 140h1M483 141h1M486 141h1M483 142h1M486 142h1M483 143h1M486 143h1M483 144h1M486 144h1M483 145h1M486 145h1M483 146h1M486 146h1M483 147h1M486 147h1M483 148h1M486 148h1M483 149h1M486 149h1M483 150h1M486 150h1M483 151h1M486 151h1M483 152h1M486 152h1M483 153h1M486 153h1M483 154h1M486 154h1M483 155h1M486 155h1M483 156h1M486 156h1M483 157h1M486 157h1M483 158h1M486 158h1M483 159h1M486 159h1M483 160h1M486 160h1M483 161h1M486 161h1M483 162h1M486 162h1M483 163h1M486 163h1M483 164h1M486 164h1M483 165h1M486 165h1M483 166h1M486 166h1M483 167h1M486 167h1M483 168h1M486 168h1M483 169h1M486 169h1M483 170h1M486 170h1M483 171h1M486 171h1M483 172h1M486 172h1M483 173h1M486 173h1M483 174h1M486 174h1M483 175h1M486 175h1M483 176h1M486 176h1M483 177h1M486 177h1M483 178h1M486 178h1M483 179h1M486 179h1M483 180h1M486 180h1M483 181h1M486 181h1M483 182h1M486 182h1M483 183h1M486 183h1M483 184h1M486 184h1M483 185h1M486 185h1M483 186h1M486 186h1M483 187h1M486 187h1M483 188h1M486 188h1M483 189h1M486 189h1M483 190h1M486 190h1M483 191h1M486 191h1M483 192h1M486 192h1M483 193h1M486 193h1M483 194h1M486 194h1M483 195h1M486 195h1M483 196h1M486 196h1M483 197h1M486 197h1M483 198h1M486 198h1M483 199h1M486 199h1M483 200h1M486 200h1M483 201h1M486 201h1M483 202h1M486 202h1M483 203h1M486 203h1M483 204h1M486 204h1M483 205h1M486 205h1M483 206h1M486 206h1M483 207h1M486 207h1M483 208h1M486 208h1M483 209h1M486 209h1M483 210h1M486 210h1M483 211h1M486 211h1M483 212h1M486 212h1M483 213h1M486 213h1M483 214h1M486 214h1M483 215h1M486 215h1M483 216h1M486 216h1M483 217h1M486 217h1M483 218h1M486 218h1M483 219h1M486 219h1M483 220h1M486 220h1M483 221h1M486 221h1M483 222h1M486 222h1M483 223h1M486 223h1M483 224h1M486 224h1M483 225h1M486 225h1M483 226h1M486 226h1M483 227h1M486 227h1M483 228h1M486 228h1M483 229h1M486 229h1M483 230h1M486 230h1M483 231h1M486 231h1M483 232h1M486 232h1M483 233h1M486 233h1M483 234h1M486 234h1M483 235h1M486 235h1M483 236h1M486 236h1M483 237h1M486 237h1M483 238h1M486 238h1M483 239h1M486 239h1M483 240h1M486 240h1M483 241h1M486 241h1M483 242h1M486 242h1M483 243h1M486 243h1M483 244h1M486 244h1M483 245h1M486 245h1M483 246h1M486 246h1M483 247h1M486 247h1M483 248h1M486 248h1M483 249h1M486 249h1M483 250h1M486 250h1M483 251h1M486 251h1M483 252h1M486 252h1M483 253h1M486 253h1M483 254h1M486 254h1M483 255h1M486 255h1M483 256h1M486 256h1M483 257h1M486 257h1M483 258h1M486 258h1M483 259h1M486 259h1M483 260h1M486 260h1M483 261h1M486 261h1M483 262h1M486 262h1M483 263h1M486 263h1M483 264h1M486 264h1M483 265h1M486 265h1M483 266h1M486 266h1M483 267h1M486 267h1M483 268h1M486 268h1M483 269h1M486 269h1M483 270h1M486 270h1M483 271h1M486 271h1M483 272h1M486 272h1M483 273h1M486 273h1M483 274h1M486 274h1M483 275h1M486 275h1M483 276h1M486 276h1M483 277h1M486 277h1M483 278h1M486 278h1M483 279h1M486 279h1M483 280h1M486 280h1M483 281h1M486 281h1M483 282h1M486 282h1M483 283h1M486 283h1M483 284h1M486 284h1M483 285h1M486 285h1M483 286h1M486 286h1M483 287h1M486 287h1M483 288h1M486 288h1M483 289h1M486 289h1M483 290h1M486 290h1M483 291h1M486 291h1M483 292h1M486 292h1M483 293h1M486 293h1M483 294h1M486 294h1M483 295h1M486 295h1M483 296h1M486 296h1M483 297h1M486 297h1M483 298h1M486 298h1M483 299h1M486 299h1M483 300h1M486 300h1M483 301h1M486 301h1M483 302h1M486 302h1M483 303h1M486 303h1M483 304h1M486 304h1M483 305h1M486 305h1M483 306h1M486 306h1M483 307h1M486 307h1M483 308h1M486 308h1M483 309h1M486 309h1M483 310h1M486 310h1M483 311h1M486 311h1M483 312h1M486 312h1M483 313h1M486 313h1M483 314h1M486 314h1M483 315h1M486 315h1M483 316h1M486 316h1M483 317h1M486 317h1M483 318h1M486 318h1M483 319h1M486 319h1M483 320h1M486 320h1M483 321h1M486 321h1M483 322h1M486 322h1M483 323h1M486 323h1M483 324h1M486 324h1M483 325h1M486 325h1M483 326h1M486 326h1M483 327h1M486 327h1M483 328h1M486 328h1M483 329h1M486 329h1M483 330h1M486 330h1M483 331h1M486 331h1M483 332h1M486 332h1M483 333h1M486 333h1M483 334h1M486 334h1M483 335h1M486 335h1M483 336h1M486 336h1M483 337h1M486 337h1M483 338h1M486 338h1M483 339h1M486 339h1M483 340h1M486 340h1M483 341h1M486 341h1M483 342h1M486 342h1M483 343h1M486 343h1M483 344h1M486 344h1M483 345h1M486 345h1M483 346h1M486 346h1M483 347h1M486 347h1M483 348h1M486 348h1M483 349h1M486 349h1M483 350h1M486 350h1M483 351h1M486 351h1M483 352h1M486 352h1M483 353h1M486 353h1M483 354h1M486 354h1M483 355h1M486 355h1M483 356h1M486 356h1M483 357h1M486 357h1M483 358h1M486 358h1M483 359h1M486 359h1M483 360h1M486 360h1M483 361h1M486 361h1M483 362h1M486 362h1M483 363h1M486 363h1M483 364h1M486 364h1M483 365h1M486 365h1M483 366h1M486 366h1M483 367h1M486 367h1M483 368h1M486 368h1M483 369h1M486 369h1M483 370h1M486 370h1M483 371h1M486 371h1M483 372h1M486 372h1M483 373h1M486 373h1M483 374h1M486 374h1M483 375h1M486 375h1M483 376h1M486 376h1M483 377h1M486 377h1M483 378h1M486 378h1M483 379h1M486 379h1M483 380h1M486 380h1M483 381h1M486 381h1M483 382h1M486 382h1M483 383h1M486 383h1M483 384h1M486 384h1M483 385h1M486 385h1M483 386h1M486 386h1M483 387h1M486 387h1M483 388h1M486 388h1M483 389h1M486 389h1M483 390h1M486 390h1M483 391h1M486 391h1M483 392h1M486 392h1M483 393h1M486 393h1M483 394h1M486 394h1M483 395h1M486 395h1M483 396h1M486 396h1M483 397h1M486 397h1M483 398h1M486 398h1M483 399h1M486 399h1M5 400h479M486 400h1M486 401h1M486 402h1M486 403h1M486 404h1M486 405h1M486 406h1M486 408h1M486 409h1M486 410h1M486 411h1M486 412h1M486 413h1M486 414h1M486 415h1M486 416h1M486 417h1M486 418h1M486 419h1M5 420h29M98 420h1M100 420h1M102 420h1M104 420h136M486 420h1M6 421h28M99 421h141M486 421h1M486 422h1M486 423h1M486 424h1M486 425h1M486 426h1M486 427h1M486 428h1M486 429h1M486 430h1M486 431h1M486 432h1M486 433h1M486 434h1M486 435h1M486 436h1M486 437h1M486 438h1M486 439h1M486 441h1M1 442h481M483 442h4" />
<path stroke="#000184" d="M6 6h1M30 6h1M36 8h1M35 10h1M38 11h1M15 13h1M43 16h1M41 17h1M40 19h1" />
<path stroke="#040080" d="M16 6h1" />
<path stroke="#000282" d="M17 6h1M22 14h1" />
<path stroke="#000283" d="M26 6h1" />
<path stroke="#838280" d="M486 6h1M486 17h1" />
<path stroke="#fcffff" d="M10 7h1M14 9h1M43 13h1M6 14h1" />
<path stroke="#000287" d="M12 7h1" />
<path stroke="#000186" d="M17 7h1" />
<path stroke="#fefffb" d="M24 7h1M5 13h1M41 16h1" />
<path stroke="#040082" d="M25 7h1M41 13h1" />
<path stroke="#000284" d="M26 7h1" />
<path stroke="#000280" d="M30 7h1M3 8h1M45 10h1" />
<path stroke="#838184" d="M486 7h1M486 16h1" />
<path stroke="#fffdfe" d="M21 8h1M26 10h1M18 12h1" />
<path stroke="#00027f" d="M41 8h1" />
<path stroke="#00017f" d="M42 8h1M12 13h1" />
<path stroke="#635ea0" d="M2 9h1" />
<path stroke="#030081" d="M25 9h1M37 17h1" />
<path stroke="#fefefe" d="M28 9h1M33 9h1M31 10h1M9 11h1M33 12h1M21 13h1M27 13h1M28 15h1M1 24h1M1 26h1M1 30h1M1 401h1M1 420h1M1 440h1" />
<path stroke="#fffefd" d="M36 9h1" />
<path stroke="#020084" d="M37 9h1M32 14h1M34 17h1M43 17h1M35 20h1" />
<path stroke="#020087" d="M11 10h1" />
<path stroke="#fcfffd" d="M44 10h1M17 14h1" />
<path stroke="#fdfdfb" d="M11 11h1" />
<path stroke="#fdfffc" d="M17 11h1" />
<path stroke="#5f60a1" d="M2 12h1M2 14h1M485 19h1" />
<path stroke="#000285" d="M22 12h1M45 20h1" />
<path stroke="#c4c2c5" d="M0 13h1M45 22h1" />
<path stroke="#6262a2" d="M2 13h1" />
<path stroke="#fbffff" d="M38 17h1" />
<path stroke="#5e5fa0" d="M2 19h1M4 21h1M483 21h1" />
<path stroke="#828483" d="M486 19h1" />
<path stroke="#645fa2" d="M2 21h1M485 21h1" />
<path stroke="#5d60a3" d="M34 21h1" />
<path stroke="#5f619e" d="M41 21h1" />
<path stroke="#5d61a1" d="M43 21h1" />
<path stroke="#5e62a2" d="M44 21h1" />
<path stroke="#5f5f9f" d="M45 21h1" />
<path stroke="#808183" d="M486 21h1" />
<path stroke="#c1c2c4" d="M2 22h1M485 22h1" />
<path stroke="#c2c2c2" d="M5 22h1M44 22h1M482 22h1M43 23h1M7 24h1M480 24h1M0 25h1M6 25h1M481 25h1M483 25h1M6 27h1M6 29h1M482 30h1M5 401h1M7 402h1M483 402h1M3 403h1M6 403h1M0 404h1M4 404h2M5 405h1M7 405h1M482 405h1M484 405h1M0 406h1M6 406h1M483 406h1M32 408h1M38 408h1M53 408h1M58 408h1M66 408h1M89 408h1M91 408h1M33 409h1M37 409h1M42 409h1M46 409h1M54 409h1M57 409h1M65 409h1M75 409h1M77 409h1M90 409h1M35 410h1M45 410h1M68 410h1M70 410h1M74 410h1M78 410h1M34 411h1M37 411h1M46 411h2M54 411h1M57 411h1M66 411h1M69 411h1M72 411h1M76 411h1M79 411h1M39 412h1M42 412h1M55 412h2M74 412h1M91 412h1M33 413h1M35 413h1M38 413h1M46 413h2M52 413h1M59 413h1M68 413h1M92 413h1M32 414h1M37 414h1M43 414h1M49 414h1M51 414h1M60 414h1M62 414h1M66 414h1M70 414h1M75 414h1M77 414h1M79 414h1M90 414h2M36 415h1M50 415h1M52 415h1M59 415h1M61 415h1M35 416h1M37 416h1M54 416h1M57 416h1M61 416h1M66 416h1M71 416h1M79 416h1M83 416h1M94 416h1M3 417h1M32 417h3M36 417h1M52 417h1M55 417h2M60 417h1M71 417h1M78 417h1M86 417h1M89 417h1M95 417h1M102 417h1M4 418h1M6 418h1M37 418h1M44 418h1M49 418h1M54 418h1M65 418h1M73 418h1M82 418h1M91 418h1M97 418h1M0 419h1M7 419h1M52 419h1M57 419h1M59 419h1M64 419h1M50 420h1M58 420h1M67 420h1M79 420h1M0 421h1M3 421h1M35 421h1M46 421h1M57 421h1M76 421h1M87 421h1M93 421h2M2 422h1M7 422h1M34 422h1M37 422h1M45 422h1M49 422h1M53 422h1M55 422h1M58 422h1M79 422h1M3 423h1M101 423h1M103 423h1M58 424h1M72 424h1M91 424h1M44 425h1M48 425h1M50 425h1M54 425h1M59 425h1M65 425h1M81 425h1M86 425h1M41 426h1M46 426h1M66 426h1M72 426h1M74 426h1M78 426h1M43 427h1M54 427h1M60 427h1M69 427h1M73 427h1M75 427h1M77 427h1M79 427h1M89 427h1M93 427h1M53 428h1M62 428h1M81 428h1M83 428h1M86 428h1M94 428h1M35 429h1M42 429h1M45 429h1M50 429h1M54 429h1M58 429h1M63 429h1M67 429h1M69 429h1M90 429h1M92 429h1M41 430h1M45 430h1M51 430h1M56 430h1M68 430h1M77 430h1M83 430h1M86 430h1M93 430h1M35 431h1M51 431h1M57 431h1M75 431h1M3 440h1M482 441h1M484 441h1" />
<path stroke="#c3c1c4" d="M7 22h1M480 22h1" />
<path stroke="#c3c5c4" d="M39 22h1" />
<path stroke="#c5c3c4" d="M43 22h1" />
<path stroke="#c6c2c1" d="M46 22h1" />
<path stroke="#818380" d="M486 22h1" />
<path stroke="#838385" d="M486 23h1" />
<path stroke="#818181" d="M486 24h1M486 30h1M99 420h1M5 421h1M98 421h1M486 440h1" />
<path stroke="#838383" d="M486 25h1M486 407h1M101 420h1M103 420h1M482 442h1" />
<path stroke="#010101" d="M487 28h1M49 415h1M62 415h1M68 415h1M91 415h1M41 417h1M45 417h1M49 417h1M66 417h1M68 417h1M73 417h1M48 418h1M50 418h1M56 418h1M63 418h1M71 418h2M86 418h1M90 418h1M77 419h1M89 419h1M44 420h1M62 420h1M68 420h1M84 420h1M41 421h2M45 421h1M48 421h1M83 421h1M92 421h1M44 422h1M54 422h1M62 422h1M70 422h1M80 422h1M41 423h1M68 423h1M92 424h1M41 425h1M46 425h1M52 425h1M70 425h1M78 425h1M82 425h1" />
<path stroke="#c1c1c1" d="M58 417h1M84 429h1" />
<path stroke="#c5c5c5" d="M67 419h1M84 428h1" />
</svg>