<svg xmlns="http://www.w3.org/2000/svg" viewBox="0 -0.5 488 411" shape-rendering="crispEdges">
<metadata>Made with Pixels to Svg https://codepen.io/shshaw/pen/XbxvNj</metadata>
<path stroke="#c3c3c3" d="M0 0h487M0 1h1M0 2h1M0 3h1M0 4h1M0 5h1M0 6h1M0 7h1M0 8h1M0 9h1M0 10h1M0 11h1M0 12h1M0 13h1M0 14h1M0 15h1M0 16h1M0 17h1M0 18h1M0 19h1M0 20h1M0 21h1M0 22h1M2 22h484M0 23h1M2 23h484M0 24h1M2 24h484M0 25h1M2 25h484M0 26h1M2 26h484M0 27h1M2 27h484M0 28h1M2 28h484M0 29h1M2 29h484M0 30h1M2 30h484M0 31h1M2 31h2M484 31h2M0 32h1M2 32h2M484 32h2M0 33h1M2 33h2M484 33h2M0 34h1M2 34h2M484 34h2M0 35h1M2 35h2M484 35h2M0 36h1M2 36h2M484 36h2M0 37h1M2 37h2M484 37h2M0 38h1M2 38h2M484 38h2M0 39h1M2 39h2M484 39h2M0 40h1M2 40h2M484 40h2M0 41h1M2 41h2M484 41h2M0 42h1M2 42h2M484 42h2M0 43h1M2 43h2M484 43h2M0 44h1M2 44h2M484 44h2M0 45h1M2 45h2M484 45h2M0 46h1M2 46h2M484 46h2M0 47h1M2 47h2M484 47h2M0 48h1M2 48h2M484 48h2M0 49h1M2 49h2M484 49h2M0 50h1M2 50h2M484 50h2M0 51h1M2 51h2M484 51h2M0 52h1M2 52h2M484 52h2M0 53h1M2 53h2M484 53h2M0 54h1M2 54h2M484 54h2M0 55h1M2 55h2M484 55h2M0 56h1M2 56h2M484 56h2M0 57h1M2 57h2M484 57h2M0 58h1M2 58h2M484 58h2M0 59h1M2 59h2M484 59h2M0 60h1M2 60h2M484 60h2M0 61h1M2 61h2M484 61h2M0 62h1M2 62h2M484 62h2M0 63h1M2 63h2M484 63h2M0 64h1M2 64h2M484 64h2M0 65h1M2 65h2M484 65h2M0 66h1M2 66h2M484 66h2M0 67h1M2 67h2M484 67h2M0 68h1M2 68h2M484 68h2M0 69h1M2 69h2M484 69h2M0 70h1M2 70h2M484 70h2M0 71h1M2 71h2M484 71h2M0 72h1M2 72h2M484 72h2M0 73h1M2 73h2M484 73h2M0 74h1M2 74h2M484 74h2M0 75h1M2 75h2M484 75h2M0 76h1M2 76h2M484 76h2M0 77h1M2 77h2M484 77h2M0 78h1M2 78h2M484 78h2M0 79h1M2 79h2M484 79h2M0 80h1M2 80h2M484 80h2M0 81h1M2 81h2M484 81h2M0 82h1M2 82h2M484 82h2M0 83h1M2 83h2M484 83h2M0 84h1M2 84h2M484 84h2M0 85h1M2 85h2M484 85h2M0 86h1M2 86h2M484 86h2M0 87h1M2 87h2M484 87h2M0 88h1M2 88h2M484 88h2M0 89h1M2 89h2M484 89h2M0 90h1M2 90h2M484 90h2M0 91h1M2 91h2M484 91h2M0 92h1M2 92h2M484 92h2M0 93h1M2 93h2M484 93h2M0 94h1M2 94h2M484 94h2M0 95h1M2 95h2M484 95h2M0 96h1M2 96h2M484 96h2M0 97h1M2 97h2M484 97h2M0 98h1M2 98h2M484 98h2M0 99h1M2 99h2M484 99h2M0 100h1M2 100h2M484 100h2M0 101h1M2 101h2M484 101h2M0 102h1M2 102h2M484 102h2M0 103h1M2 103h2M484 103h2M0 104h1M2 104h2M484 104h2M0 105h1M2 105h2M484 105h2M0 106h1M2 106h2M484 106h2M0 107h1M2 107h2M484 107h2M0 108h1M2 108h2M484 108h2M0 109h1M2 109h2M484 109h2M0 110h1M2 110h2M484 110h2M0 111h1M2 111h2M484 111h2M0 112h1M2 112h2M484 112h2M0 113h1M2 113h2M484 113h2M0 114h1M2 114h2M484 114h2M0 115h1M2 115h2M484 115h2M0 116h1M2 116h2M484 116h2M0 117h1M2 117h2M484 117h2M0 118h1M2 118h2M484 118h2M0 119h1M2 119h2M484 119h2M0 120h1M2 120h2M484 120h2M0 121h1M2 121h2M484 121h2M0 122h1M2 122h2M484 122h2M0 123h1M2 123h2M484 123h2M0 124h1M2 124h2M484 124h2M0 125h1M2 125h2M484 125h2M0 126h1M2 126h2M484 126h2M0 127h1M2 127h2M484 127h2M0 128h1M2 128h2M484 128h2M0 129h1M2 129h2M484 129h2M0 130h1M2 130h2M484 130h2M0 131h1M2 131h2M484 131h2M0 132h1M2 132h2M484 132h2M0 133h1M2 133h2M484 133h2M0 134h1M2 134h2M484 134h2M0 135h1M2 135h2M484 135h2M0 136h1M2 136h2M484 136h2M0 137h1M2 137h2M484 137h2M0 138h1M2 138h2M484 138h2M0 139h1M2 139h2M484 139h2M0 140h1M2 140h2M484 140h2M0 141h1M2 141h2M484 141h2M0 142h1M2 142h2M484 142h2M0 143h1M2 143h2M484 143h2M0 144h1M2 144h2M484 144h2M0 145h1M2 145h2M484 145h2M0 146h1M2 146h2M484 146h2M0 147h1M2 147h2M484 147h2M0 148h1M2 148h2M484 148h2M0 149h1M2 149h2M484 149h2M0 150h1M2 150h2M484 150h2M0 151h1M2 151h2M484 151h2M0 152h1M2 152h2M484 152h2M0 153h1M2 153h2M484 153h2M0 154h1M2 154h2M484 154h2M0 155h1M2 155h2M484 155h2M0 156h1M2 156h2M484 156h2M0 157h1M2 157h2M484 157h2M0 158h1M2 158h2M484 158h2M0 159h1M2 159h2M484 159h2M0 160h1M2 160h2M484 160h2M0 161h1M2 161h2M484 161h2M0 162h1M2 162h2M484 162h2M0 163h1M2 163h2M484 163h2M0 164h1M2 164h2M484 164h2M0 165h1M2 165h2M484 165h2M0 166h1M2 166h2M484 166h2M0 167h1M2 167h2M484 167h2M0 168h1M2 168h2M484 168h2M0 169h1M2 169h2M484 169h2M0 170h1M2 170h2M484 170h2M0 171h1M2 171h2M484 171h2M0 172h1M2 172h2M484 172h2M0 173h1M2 173h2M484 173h2M0 174h1M2 174h2M484 174h2M0 175h1M2 175h2M484 175h2M0 176h1M2 176h2M484 176h2M0 177h1M2 177h2M484 177h2M0 178h1M2 178h2M484 178h2M0 179h1M2 179h2M484 179h2M0 180h1M2 180h2M484 180h2M0 181h1M2 181h2M484 181h2M0 182h1M2 182h2M484 182h2M0 183h1M2 183h2M484 183h2M0 184h1M2 184h2M484 184h2M0 185h1M2 185h2M484 185h2M0 186h1M2 186h2M484 186h2M0 187h1M2 187h2M484 187h2M0 188h1M2 188h2M484 188h2M0 189h1M2 189h2M484 189h2M0 190h1M2 190h2M484 190h2M0 191h1M2 191h2M484 191h2M0 192h1M2 192h2M484 192h2M0 193h1M2 193h2M484 193h2M0 194h1M2 194h2M484 194h2M0 195h1M2 195h2M484 195h2M0 196h1M2 196h2M484 196h2M0 197h1M2 197h2M484 197h2M0 198h1M2 198h2M484 198h2M0 199h1M2 199h2M484 199h2M0 200h1M2 200h2M484 200h2M0 201h1M2 201h2M484 201h2M0 202h1M2 202h2M484 202h2M0 203h1M2 203h2M484 203h2M0 204h1M2 204h2M484 204h2M0 205h1M2 205h2M484 205h2M0 206h1M2 206h2M484 206h2M0 207h1M2 207h2M484 207h2M0 208h1M2 208h2M484 208h2M0 209h1M2 209h2M484 209h2M0 210h1M2 210h2M484 210h2M0 211h1M2 211h2M484 211h2M0 212h1M2 212h2M484 212h2M0 213h1M2 213h2M484 213h2M0 214h1M2 214h2M484 214h2M0 215h1M2 215h2M484 215h2M0 216h1M2 216h2M484 216h2M0 217h1M2 217h2M484 217h2M0 218h1M2 218h2M484 218h2M0 219h1M2 219h2M484 219h2M0 220h1M2 220h2M484 220h2M0 221h1M2 221h2M484 221h2M0 222h1M2 222h2M484 222h2M0 223h1M2 223h2M484 223h2M0 224h1M2 224h2M484 224h2M0 225h1M2 225h2M484 225h2M0 226h1M2 226h2M484 226h2M0 227h1M2 227h2M484 227h2M0 228h1M2 228h2M484 228h2M0 229h1M2 229h2M484 229h2M0 230h1M2 230h2M484 230h2M0 231h1M2 231h2M484 231h2M0 232h1M2 232h2M484 232h2M0 233h1M2 233h2M484 233h2M0 234h1M2 234h2M484 234h2M0 235h1M2 235h2M484 235h2M0 236h1M2 236h2M484 236h2M0 237h1M2 237h2M484 237h2M0 238h1M2 238h2M484 238h2M0 239h1M2 239h2M484 239h2M0 240h1M2 240h2M484 240h2M0 241h1M2 241h2M484 241h2M0 242h1M2 242h2M484 242h2M0 243h1M2 243h2M484 243h2M0 244h1M2 244h2M484 244h2M0 245h1M2 245h2M484 245h2M0 246h1M2 246h2M484 246h2M0 247h1M2 247h2M484 247h2M0 248h1M2 248h2M484 248h2M0 249h1M2 249h2M484 249h2M0 250h1M2 250h2M484 250h2M0 251h1M2 251h2M484 251h2M0 252h1M2 252h2M484 252h2M0 253h1M2 253h2M484 253h2M0 254h1M2 254h2M484 254h2M0 255h1M2 255h2M484 255h2M0 256h1M2 256h2M484 256h2M0 257h1M2 257h2M484 257h2M0 258h1M2 258h2M484 258h2M0 259h1M2 259h2M484 259h2M0 260h1M2 260h2M484 260h2M0 261h1M2 261h2M484 261h2M0 262h1M2 262h2M484 262h2M0 263h1M2 263h2M484 263h2M0 264h1M2 264h2M484 264h2M0 265h1M2 265h2M484 265h2M0 266h1M2 266h2M484 266h2M0 267h1M2 267h2M484 267h2M0 268h1M2 268h2M484 268h2M0 269h1M2 269h2M484 269h2M0 270h1M2 270h2M484 270h2M0 271h1M2 271h2M484 271h2M0 272h1M2 272h2M484 272h2M0 273h1M2 273h2M484 273h2M0 274h1M2 274h2M484 274h2M0 275h1M2 275h2M484 275h2M0 276h1M2 276h2M484 276h2M0 277h1M2 277h2M484 277h2M0 278h1M2 278h2M484 278h2M0 279h1M2 279h2M484 279h2M0 280h1M2 280h2M484 280h2M0 281h1M2 281h2M484 281h2M0 282h1M2 282h2M484 282h2M0 283h1M2 283h2M484 283h2M0 284h1M2 284h2M484 284h2M0 285h1M2 285h2M484 285h2M0 286h1M2 286h2M484 286h2M0 287h1M2 287h2M484 287h2M0 288h1M2 288h2M484 288h2M0 289h1M2 289h2M484 289h2M0 290h1M2 290h2M484 290h2M0 291h1M2 291h2M484 291h2M0 292h1M2 292h2M484 292h2M0 293h1M2 293h2M484 293h2M0 294h1M2 294h2M484 294h2M0 295h1M2 295h2M484 295h2M0 296h1M2 296h2M484 296h2M0 297h1M2 297h2M484 297h2M0 298h1M2 298h2M484 298h2M0 299h1M2 299h2M484 299h2M0 300h1M2 300h2M484 300h2M0 301h1M2 301h2M484 301h2M0 302h1M2 302h2M484 302h2M0 303h1M2 303h2M484 303h2M0 304h1M2 304h2M484 304h2M0 305h1M2 305h2M484 305h2M0 306h1M2 306h2M484 306h2M0 307h1M2 307h2M484 307h2M0 308h1M2 308h2M484 308h2M0 309h1M2 309h2M484 309h2M0 310h1M2 310h2M484 310h2M0 311h1M2 311h2M484 311h2M0 312h1M2 312h2M484 312h2M0 313h1M2 313h2M484 313h2M0 314h1M2 314h2M484 314h2M0 315h1M2 315h2M484 315h2M0 316h1M2 316h2M484 316h2M0 317h1M2 317h2M484 317h2M0 318h1M2 318h2M484 318h2M0 319h1M2 319h2M484 319h2M0 320h1M2 320h2M484 320h2M0 321h1M2 321h2M484 321h2M0 322h1M2 322h2M484 322h2M0 323h1M2 323h2M484 323h2M0 324h1M2 324h2M484 324h2M0 325h1M2 325h2M484 325h2M0 326h1M2 326h2M484 326h2M0 327h1M2 327h2M484 327h2M0 328h1M2 328h2M484 328h2M0 329h1M2 329h2M484 329h2M0 330h1M2 330h2M484 330h2M0 331h1M2 331h2M484 331h2M0 332h1M2 332h2M484 332h2M0 333h1M2 333h2M484 333h2M0 334h1M2 334h2M484 334h2M0 335h1M2 335h2M484 335h2M0 336h1M2 336h2M484 336h2M0 337h1M2 337h2M484 337h2M0 338h1M2 338h2M484 338h2M0 339h1M2 339h2M484 339h2M0 340h1M2 340h2M484 340h2M0 341h1M2 341h2M484 341h2M0 342h1M2 342h2M484 342h2M0 343h1M2 343h2M484 343h2M0 344h1M2 344h2M484 344h2M0 345h1M2 345h2M484 345h2M0 346h1M2 346h2M484 346h2M0 347h1M2 347h2M484 347h2M0 348h1M2 348h2M484 348h2M0 349h1M2 349h2M484 349h2M0 350h1M2 350h2M484 350h2M0 351h1M2 351h2M484 351h2M0 352h1M2 352h2M484 352h2M0 353h1M2 353h2M484 353h2M0 354h1M2 354h2M484 354h2M0 355h1M2 355h2M484 355h2M0 356h1M2 356h2M484 356h2M0 357h1M2 357h2M484 357h2M0 358h1M2 358h2M484 358h2M0 359h1M2 359h2M484 359h2M0 360h1M2 360h2M484 360h2M0 361h1M2 361h2M484 361h2M0 362h1M2 362h2M484 362h2M0 363h1M2 363h2M484 363h2M0 364h1M2 364h2M484 364h2M0 365h1M2 365h2M484 365h2M0 366h1M2 366h2M484 366h2M0 367h1M2 367h2M484 367h2M0 368h1M2 368h2M484 368h2M0 369h1M2 369h2M484 369h2M0 370h1M2 370h2M484 370h2M0 371h1M2 371h2M484 371h2M0 372h1M2 372h2M484 372h2M0 373h1M2 373h2M484 373h2M0 374h1M2 374h2M484 374h2M0 375h1M2 375h2M484 375h2M0 376h1M2 376h2M484 376h2M0 377h1M2 377h2M484 377h2M0 378h1M2 378h2M484 378h2M0 379h1M2 379h2M484 379h2M0 380h1M2 380h2M484 380h2M0 381h1M2 381h2M484 381h2M0 382h1M2 382h2M484 382h2M0 383h1M2 383h2M484 383h2M0 384h1M2 384h2M484 384h2M0 385h1M2 385h2M484 385h2M0 386h1M2 386h2M484 386h2M0 387h1M2 387h2M484 387h2M0 388h1M2 388h2M484 388h2M0 389h1M2 389h2M484 389h2M0 390h1M2 390h2M484 390h2M0 391h1M2 391h2M484 391h2M0 392h1M2 392h2M484 392h2M0 393h1M2 393h2M484 393h2M0 394h1M2 394h2M484 394h2M0 395h1M2 395h2M484 395h2M0 396h1M2 396h2M484 396h2M0 397h1M2 397h2M484 397h2M0 398h1M2 398h2M484 398h2M0 399h1M2 399h2M484 399h2M0 400h1M2 400h2M484 400h2M0 401h1M2 401h484M0 402h1M2 402h484M0 403h1M2 403h484M0 404h1M2 404h484M0 405h1M2 405h484M0 406h1M2 406h484M0 407h1M2 407h484M0 408h1M2 408h484M0 409h1" />
<path stroke="#000000" d="M487 0h1M487 1h1M487 2h1M487 3h1M487 4h1M487 5h1M487 6h1M487 7h1M487 8h1M487 9h1M487 10h1M487 11h1M487 12h1M487 13h1M487 14h1M487 15h1M487 16h1M487 17h1M487 18h1M487 19h1M487 20h1M487 21h1M487 22h1M487 23h1M487 24h1M487 25h1M487 26h1M487 27h1M487 28h1M487 29h1M487 30h1M487 31h1M487 32h1M487 33h1M487 34h1M487 35h1M487 36h1M487 37h1M487 38h1M487 39h1M487 40h1M487 41h1M487 42h1M487 43h1M487 44h1M487 45h1M487 46h1M487 47h1M487 48h1M487 49h1M487 50h1M487 51h1M487 52h1M487 53h1M487 54h1M487 55h1M487 56h1M487 57h1M487 58h1M487 59h1M487 60h1M487 61h1M487 62h1M487 63h1M487 64h1M487 65h1M487 66h1M487 67h1M487 68h1M487 69h1M487 70h1M487 71h1M487 72h1M487 73h1M487 74h1M487 75h1M487 76h1M487 77h1M487 78h1M487 79h1M487 80h1M487 81h1M487 82h1M487 83h1M487 84h1M487 85h1M487 86h1M487 87h1M487 88h1M487 89h1M487 90h1M487 91h1M487 92h1M487 93h1M487 94h1M487 95h1M487 96h1M487 97h1M487 98h1M487 99h1M487 100h1M487 101h1M487 102h1M487 103h1M487 104h1M487 105h1M487 106h1M487 107h1M487 108h1M487 109h1M487 110h1M487 111h1M487 112h1M487 113h1M487 114h1M487 115h1M487 116h1M487 117h1M487 118h1M487 119h1M487 120h1M487 121h1M487 122h1M487 123h1M487 124h1M487 125h1M487 126h1M487 127h1M487 128h1M487 129h1M487 130h1M487 131h1M487 132h1M487 133h1M487 134h1M487 135h1M487 136h1M487 137h1M487 138h1M487 139h1M487 140h1M487 141h1M487 142h1M487 143h1M487 144h1M487 145h1M487 146h1M487 147h1M487 148h1M487 149h1M487 150h1M487 151h1M487 152h1M487 153h1M487 154h1M487 155h1M487 156h1M487 157h1M487 158h1M487 159h1M487 160h1M487 161h1M487 162h1M487 163h1M487 164h1M487 165h1M487 166h1M487 167h1M487 168h1M487 169h1M487 170h1M487 171h1M487 172h1M487 173h1M487 174h1M487 175h1M487 176h1M487 177h1M487 178h1M487 179h1M487 180h1M487 181h1M487 182h1M487 183h1M487 184h1M487 185h1M487 186h1M487 187h1M487 188h1M487 189h1M487 190h1M487 191h1M487 192h1M487 193h1M487 194h1M487 195h1M487 196h1M487 197h1M487 198h1M487 199h1M487 200h1M487 201h1M487 202h1M487 203h1M487 204h1M487 205h1M487 206h1M487 207h1M487 208h1M487 209h1M487 210h1M487 211h1M487 212h1M487 213h1M487 214h1M487 215h1M487 216h1M487 217h1M487 218h1M487 219h1M487 220h1M487 221h1M487 222h1M487 223h1M487 224h1M487 225h1M487 226h1M487 227h1M487 228h1M487 229h1M487 230h1M487 231h1M487 232h1M487 233h1M487 234h1M487 235h1M487 236h1M487 237h1M487 238h1M487 239h1M487 240h1M487 241h1M487 242h1M487 243h1M487 244h1M487 245h1M487 246h1M487 247h1M487 248h1M487 249h1M487 250h1M487 251h1M487 252h1M487 253h1M487 254h1M487 255h1M487 256h1M487 257h1M487 258h1M487 259h1M487 260h1M487 261h1M487 262h1M487 263h1M487 264h1M487 265h1M487 266h1M487 267h1M487 268h1M487 269h1M487 270h1M487 271h1M487 272h1M487 273h1M487 274h1M487 275h1M487 276h1M487 277h1M487 278h1M487 279h1M487 280h1M487 281h1M487 282h1M487 283h1M487 284h1M487 285h1M487 286h1M487 287h1M487 288h1M487 289h1M487 290h1M487 291h1M487 292h1M487 293h1M487 294h1M487 295h1M487 296h1M487 297h1M487 298h1M487 299h1M487 300h1M487 301h1M487 302h1M487 303h1M487 304h1M487 305h1M487 306h1M487 307h1M487 308h1M487 309h1M487 310h1M487 311h1M487 312h1M487 313h1M487 314h1M487 315h1M487 316h1M487 317h1M487 318h1M487 319h1M487 320h1M487 321h1M487 322h1M487 323h1M487 324h1M487 325h1M487 326h1M487 327h1M487 328h1M487 329h1M487 330h1M487 331h1M487 332h1M487 333h1M487 334h1M487 335h1M487 336h1M487 337h1M487 338h1M487 339h1M487 340h1M487 341h1M487 342h1M487 343h1M487 344h1M487 345h1M487 346h1M487 347h1M487 348h1M487 349h1M487 350h1M487 351h1M487 352h1M487 353h1M487 354h1M487 355h1M487 356h1M487 357h1M487 358h1M487 359h1M487 360h1M487 361h1M487 362h1M487 363h1M487 364h1M487 365h1M487 366h1M487 367h1M487 368h1M487 369h1M487 370h1M487 371h1M487 372h1M487 373h1M487 374h1M487 375h1M487 376h1M487 377h1M487 378h1M487 379h1M487 380h1M487 381h1M487 382h1M487 383h1M487 384h1M487 385h1M487 386h1M487 387h1M487 388h1M487 389h1M487 390h1M487 391h1M487 392h1M487 393h1M487 394h1M487 395h1M487 396h1M487 397h1M487 398h1M487 399h1M487 400h1M487 401h1M487 402h1M487 403h1M487 404h1M487 405h1M487 406h1M487 407h1M487 408h1M487 409h1M0 410h488" />
<path stroke="#ffffff" d="M1 1h485M1 2h1M1 3h1M1 4h1M1 5h1M1 6h1M1 7h1M7 7h4M20 7h2M23 7h2M1 8h1M6 8h2M10 8h2M20 8h2M23 8h2M1 9h1M5 9h2M14 9h4M20 9h2M23 9h2M27 9h4M33 9h4M38 9h2M43 9h2M1 10h1M5 10h2M13 10h1M17 10h2M20 10h2M23 10h2M26 10h2M30 10h2M33 10h2M38 10h2M43 10h2M1 11h1M5 11h2M9 11h3M15 11h4M20 11h2M23 11h2M26 11h2M30 11h2M33 11h2M39 11h2M42 11h2M1 12h1M5 12h2M10 12h2M14 12h2M17 12h2M20 12h2M23 12h2M26 12h6M33 12h2M39 12h2M42 12h2M1 13h1M5 13h2M10 13h2M13 13h2M17 13h2M20 13h2M23 13h2M26 13h2M33 13h2M39 13h2M42 13h2M1 14h1M6 14h2M10 14h2M13 14h2M17 14h2M20 14h2M23 14h2M26 14h2M30 14h2M33 14h2M40 14h3M1 15h1M7 15h4M14 15h5M20 15h2M23 15h2M27 15h4M33 15h2M40 15h3M1 16h1M40 16h2M1 17h1M38 17h3M1 18h1M1 19h1M1 20h1M1 21h1M1 22h1M1 23h1M1 24h1M1 25h1M1 26h1M1 27h1M1 28h1M1 29h1M1 30h1M1 31h1M4 31h480M1 32h1M4 32h1M1 33h1M4 33h1M1 34h1M4 34h1M1 35h1M4 35h1M1 36h1M4 36h1M1 37h1M4 37h1M1 38h1M4 38h1M1 39h1M4 39h1M1 40h1M4 40h1M1 41h1M4 41h1M1 42h1M4 42h1M1 43h1M4 43h1M1 44h1M4 44h1M1 45h1M4 45h1M1 46h1M4 46h1M1 47h1M4 47h1M1 48h1M4 48h1M1 49h1M4 49h1M1 50h1M4 50h1M1 51h1M4 51h1M1 52h1M4 52h1M1 53h1M4 53h1M1 54h1M4 54h1M1 55h1M4 55h1M1 56h1M4 56h1M1 57h1M4 57h1M1 58h1M4 58h1M1 59h1M4 59h1M1 60h1M4 60h1M1 61h1M4 61h1M1 62h1M4 62h1M1 63h1M4 63h1M1 64h1M4 64h1M1 65h1M4 65h1M1 66h1M4 66h1M1 67h1M4 67h1M1 68h1M4 68h1M1 69h1M4 69h1M1 70h1M4 70h1M1 71h1M4 71h1M1 72h1M4 72h1M1 73h1M4 73h1M1 74h1M4 74h1M1 75h1M4 75h1M1 76h1M4 76h1M1 77h1M4 77h1M1 78h1M4 78h1M1 79h1M4 79h1M1 80h1M4 80h1M1 81h1M4 81h1M1 82h1M4 82h1M1 83h1M4 83h1M1 84h1M4 84h1M1 85h1M4 85h1M1 86h1M4 86h1M1 87h1M4 87h1M1 88h1M4 88h1M1 89h1M4 89h1M1 90h1M4 90h1M1 91h1M4 91h1M1 92h1M4 92h1M1 93h1M4 93h1M1 94h1M4 94h1M1 95h1M4 95h1M1 96h1M4 96h1M1 97h1M4 97h1M1 98h1M4 98h1M1 99h1M4 99h1M1 100h1M4 100h1M1 101h1M4 101h1M1 102h1M4 102h1M1 103h1M4 103h1M1 104h1M4 104h1M1 105h1M4 105h1M1 106h1M4 106h1M1 107h1M4 107h1M1 108h1M4 108h1M1 109h1M4 109h1M1 110h1M4 110h1M1 111h1M4 111h1M1 112h1M4 112h1M1 113h1M4 113h1M1 114h1M4 114h1M1 115h1M4 115h1M1 116h1M4 116h1M1 117h1M4 117h1M1 118h1M4 118h1M1 119h1M4 119h1M1 120h1M4 120h1M1 121h1M4 121h1M1 122h1M4 122h1M1 123h1M4 123h1M1 124h1M4 124h1M1 125h1M4 125h1M1 126h1M4 126h1M1 127h1M4 127h1M1 128h1M4 128h1M1 129h1M4 129h1M1 130h1M4 130h1M1 131h1M4 131h1M1 132h1M4 132h1M1 133h1M4 133h1M1 134h1M4 134h1M1 135h1M4 135h1M1 136h1M4 136h1M1 137h1M4 137h1M1 138h1M4 138h1M1 139h1M4 139h1M1 140h1M4 140h1M1 141h1M4 141h1M1 142h1M4 142h1M1 143h1M4 143h1M1 144h1M4 144h1M1 145h1M4 145h1M1 146h1M4 146h1M1 147h1M4 147h1M1 148h1M4 148h1M1 149h1M4 149h1M1 150h1M4 150h1M1 151h1M4 151h1M1 152h1M4 152h1M1 153h1M4 153h1M1 154h1M4 154h1M1 155h1M4 155h1M1 156h1M4 156h1M1 157h1M4 157h1M1 158h1M4 158h1M1 159h1M4 159h1M1 160h1M4 160h1M1 161h1M4 161h1M1 162h1M4 162h1M1 163h1M4 163h1M1 164h1M4 164h1M1 165h1M4 165h1M1 166h1M4 166h1M1 167h1M4 167h1M1 168h1M4 168h1M1 169h1M4 169h1M1 170h1M4 170h1M1 171h1M4 171h1M1 172h1M4 172h1M1 173h1M4 173h1M1 174h1M4 174h1M1 175h1M4 175h1M1 176h1M4 176h1M1 177h1M4 177h1M1 178h1M4 178h1M1 179h1M4 179h1M1 180h1M4 180h1M1 181h1M4 181h1M1 182h1M4 182h1M1 183h1M4 183h1M1 184h1M4 184h1M1 185h1M4 185h1M1 186h1M4 186h1M1 187h1M4 187h1M1 188h1M4 188h1M1 189h1M4 189h1M1 190h1M4 190h1M1 191h1M4 191h1M1 192h1M4 192h1M1 193h1M4 193h1M1 194h1M4 194h1M1 195h1M4 195h1M1 196h1M4 196h1M1 197h1M4 197h1M1 198h1M4 198h1M1 199h1M4 199h1M1 200h1M4 200h1M1 201h1M4 201h1M1 202h1M4 202h1M1 203h1M4 203h1M1 204h1M4 204h1M1 205h1M4 205h1M1 206h1M4 206h1M1 207h1M4 207h1M1 208h1M4 208h1M1 209h1M4 209h1M1 210h1M4 210h1M1 211h1M4 211h1M1 212h1M4 212h1M1 213h1M4 213h1M1 214h1M4 214h1M1 215h1M4 215h1M1 216h1M4 216h1M1 217h1M4 217h1M1 218h1M4 218h1M1 219h1M4 219h1M1 220h1M4 220h1M1 221h1M4 221h1M1 222h1M4 222h1M1 223h1M4 223h1M1 224h1M4 224h1M1 225h1M4 225h1M1 226h1M4 226h1M1 227h1M4 227h1M1 228h1M4 228h1M1 229h1M4 229h1M1 230h1M4 230h1M1 231h1M4 231h1M1 232h1M4 232h1M1 233h1M4 233h1M1 234h1M4 234h1M1 235h1M4 235h1M1 236h1M4 236h1M1 237h1M4 237h1M1 238h1M4 238h1M1 239h1M4 239h1M1 240h1M4 240h1M1 241h1M4 241h1M1 242h1M4 242h1M1 243h1M4 243h1M1 244h1M4 244h1M1 245h1M4 245h1M1 246h1M4 246h1M1 247h1M4 247h1M1 248h1M4 248h1M1 249h1M4 249h1M1 250h1M4 250h1M1 251h1M4 251h1M1 252h1M4 252h1M1 253h1M4 253h1M1 254h1M4 254h1M1 255h1M4 255h1M1 256h1M4 256h1M1 257h1M4 257h1M1 258h1M4 258h1M1 259h1M4 259h1M1 260h1M4 260h1M1 261h1M4 261h1M1 262h1M4 262h1M1 263h1M4 263h1M1 264h1M4 264h1M1 265h1M4 265h1M1 266h1M4 266h1M1 267h1M4 267h1M1 268h1M4 268h1M1 269h1M4 269h1M1 270h1M4 270h1M1 271h1M4 271h1M1 272h1M4 272h1M1 273h1M4 273h1M1 274h1M4 274h1M1 275h1M4 275h1M1 276h1M4 276h1M1 277h1M4 277h1M1 278h1M4 278h1M1 279h1M4 279h1M1 280h1M4 280h1M1 281h1M4 281h1M1 282h1M4 282h1M1 283h1M4 283h1M1 284h1M4 284h1M1 285h1M4 285h1M1 286h1M4 286h1M1 287h1M4 287h1M1 288h1M4 288h1M1 289h1M4 289h1M1 290h1M4 290h1M1 291h1M4 291h1M1 292h1M4 292h1M1 293h1M4 293h1M1 294h1M4 294h1M1 295h1M4 295h1M1 296h1M4 296h1M1 297h1M4 297h1M1 298h1M4 298h1M1 299h1M4 299h1M1 300h1M4 300h1M1 301h1M4 301h1M1 302h1M4 302h1M1 303h1M4 303h1M1 304h1M4 304h1M1 305h1M4 305h1M1 306h1M4 306h1M1 307h1M4 307h1M1 308h1M4 308h1M1 309h1M4 309h1M1 310h1M4 310h1M1 311h1M4 311h1M1 312h1M4 312h1M1 313h1M4 313h1M1 314h1M4 314h1M1 315h1M4 315h1M1 316h1M4 316h1M1 317h1M4 317h1M1 318h1M4 318h1M1 319h1M4 319h1M1 320h1M4 320h1M1 321h1M4 321h1M1 322h1M4 322h1M1 323h1M4 323h1M1 324h1M4 324h1M1 325h1M4 325h1M1 326h1M4 326h1M1 327h1M4 327h1M1 328h1M4 328h1M1 329h1M4 329h1M1 330h1M4 330h1M1 331h1M4 331h1M1 332h1M4 332h1M1 333h1M4 333h1M1 334h1M4 334h1M1 335h1M4 335h1M1 336h1M4 336h1M1 337h1M4 337h1M1 338h1M4 338h1M1 339h1M4 339h1M1 340h1M4 340h1M1 341h1M4 341h1M1 342h1M4 342h1M1 343h1M4 343h1M1 344h1M4 344h1M1 345h1M4 345h1M1 346h1M4 346h1M1 347h1M4 347h1M1 348h1M4 348h1M1 349h1M4 349h1M1 350h1M4 350h1M1 351h1M4 351h1M1 352h1M4 352h1M1 353h1M4 353h1M1 354h1M4 354h1M1 355h1M4 355h1M1 356h1M4 356h1M1 357h1M4 357h1M1 358h1M4 358h1M1 359h1M4 359h1M1 360h1M4 360h1M1 361h1M4 361h1M1 362h1M4 362h1M1 363h1M4 363h1M1 364h1M4 364h1M1 365h1M4 365h1M1 366h1M4 366h1M1 367h1M4 367h1M1 368h1M4 368h1M1 369h1M4 369h1M1 370h1M4 370h1M1 371h1M4 371h1M1 372h1M4 372h1M1 373h1M4 373h1M1 374h1M4 374h1M1 375h1M4 375h1M1 376h1M4 376h1M1 377h1M4 377h1M1 378h1M4 378h1M1 379h1M4 379h1M1 380h1M4 380h1M1 381h1M4 381h1M1 382h1M4 382h1M1 383h1M4 383h1M1 384h1M4 384h1M1 385h1M4 385h1M1 386h1M4 386h1M1 387h1M4 387h1M1 388h1M4 388h1M1 389h1M4 389h1M1 390h1M4 390h1M1 391h1M4 391h1M1 392h1M4 392h1M1 393h1M4 393h1M1 394h1M4 394h1M1 395h1M4 395h1M1 396h1M4 396h1M1 397h1M4 397h1M1 398h1M4 398h1M1 399h1M4 399h1M1 400h1M4 400h1M1 401h1M1 402h1M1 403h1M1 404h1M1 405h1M1 406h1M1 407h1M1 408h1" />
<path stroke="#828282" d="M486 1h1M486 2h1M486 3h1M486 4h1M486 5h1M486 6h1M486 7h1M486 8h1M486 9h1M486 10h1M486 11h1M486 12h1M486 13h1M486 14h1M486 15h1M486 16h1M486 17h1M486 18h1M486 19h1M486 20h1M486 21h1M486 22h1M486 23h1M486 24h1M486 25h1M486 26h1M486 27h1M486 28h1M486 29h1M486 30h1M486 31h1M486 32h1M486 33h1M486 34h1M486 35h1M486 36h1M486 37h1M486 38h1M486 39h1M486 40h1M486 41h1M486 42h1M486 43h1M486 44h1M486 45h1M486 46h1M486 47h1M486 48h1M486 49h1M486 50h1M486 51h1M486 52h1M486 53h1M486 54h1M486 55h1M486 56h1M486 57h1M486 58h1M486 59h1M486 60h1M486 61h1M486 62h1M486 63h1M486 64h1M486 65h1M486 66h1M486 67h1M486 68h1M486 69h1M486 70h1M486 71h1M486 72h1M486 73h1M486 74h1M486 75h1M486 76h1M486 77h1M486 78h1M486 79h1M486 80h1M486 81h1M486 82h1M486 83h1M486 84h1M486 85h1M486 86h1M486 87h1M486 88h1M486 89h1M486 90h1M486 91h1M486 92h1M486 93h1M486 94h1M486 95h1M486 96h1M486 97h1M486 98h1M486 99h1M486 100h1M486 101h1M486 102h1M486 103h1M486 104h1M486 105h1M486 106h1M486 107h1M486 108h1M486 109h1M486 110h1M486 111h1M486 112h1M486 113h1M486 114h1M486 115h1M486 116h1M486 117h1M486 118h1M486 119h1M486 120h1M486 121h1M486 122h1M486 123h1M486 124h1M486 125h1M486 126h1M486 127h1M486 128h1M486 129h1M486 130h1M486 131h1M486 132h1M486 133h1M486 134h1M486 135h1M486 136h1M486 137h1M486 138h1M486 139h1M486 140h1M486 141h1M486 142h1M486 143h1M486 144h1M486 145h1M486 146h1M486 147h1M486 148h1M486 149h1M486 150h1M486 151h1M486 152h1M486 153h1M486 154h1M486 155h1M486 156h1M486 157h1M486 158h1M486 159h1M486 160h1M486 161h1M486 162h1M486 163h1M486 164h1M486 165h1M486 166h1M486 167h1M486 168h1M486 169h1M486 170h1M486 171h1M486 172h1M486 173h1M486 174h1M486 175h1M486 176h1M486 177h1M486 178h1M486 179h1M486 180h1M486 181h1M486 182h1M486 183h1M486 184h1M486 185h1M486 186h1M486 187h1M486 188h1M486 189h1M486 190h1M486 191h1M486 192h1M486 193h1M486 194h1M486 195h1M486 196h1M486 197h1M486 198h1M486 199h1M486 200h1M486 201h1M486 202h1M486 203h1M486 204h1M486 205h1M486 206h1M486 207h1M486 208h1M486 209h1M486 210h1M486 211h1M486 212h1M486 213h1M486 214h1M486 215h1M486 216h1M486 217h1M486 218h1M486 219h1M486 220h1M486 221h1M486 222h1M486 223h1M486 224h1M486 225h1M486 226h1M486 227h1M486 228h1M486 229h1M486 230h1M486 231h1M486 232h1M486 233h1M486 234h1M486 235h1M486 236h1M486 237h1M486 238h1M486 239h1M486 240h1M486 241h1M486 242h1M486 243h1M486 244h1M486 245h1M486 246h1M486 247h1M486 248h1M486 249h1M486 250h1M486 251h1M486 252h1M486 253h1M486 254h1M486 255h1M486 256h1M486 257h1M486 258h1M486 259h1M486 260h1M486 261h1M486 262h1M486 263h1M486 264h1M486 265h1M486 266h1M486 267h1M486 268h1M486 269h1M486 270h1M486 271h1M486 272h1M486 273h1M486 274h1M486 275h1M486 276h1M486 277h1M486 278h1M486 279h1M486 280h1M486 281h1M486 282h1M486 283h1M486 284h1M486 285h1M486 286h1M486 287h1M486 288h1M486 289h1M486 290h1M486 291h1M486 292h1M486 293h1M486 294h1M486 295h1M486 296h1M486 297h1M486 298h1M486 299h1M486 300h1M486 301h1M486 302h1M486 303h1M486 304h1M486 305h1M486 306h1M486 307h1M486 308h1M486 309h1M486 310h1M486 311h1M486 312h1M486 313h1M486 314h1M486 315h1M486 316h1M486 317h1M486 318h1M486 319h1M486 320h1M486 321h1M486 322h1M486 323h1M486 324h1M486 325h1M486 326h1M486 327h1M486 328h1M486 329h1M486 330h1M486 331h1M486 332h1M486 333h1M486 334h1M486 335h1M486 336h1M486 337h1M486 338h1M486 339h1M486 340h1M486 341h1M486 342h1M486 343h1M486 344h1M486 345h1M486 346h1M486 347h1M486 348h1M486 349h1M486 350h1M486 351h1M486 352h1M486 353h1M486 354h1M486 355h1M486 356h1M486 357h1M486 358h1M486 359h1M486 360h1M486 361h1M486 362h1M486 363h1M486 364h1M486 365h1M486 366h1M486 367h1M486 368h1M486 369h1M486 370h1M486 371h1M486 372h1M486 373h1M486 374h1M486 375h1M486 376h1M486 377h1M486 378h1M486 379h1M486 380h1M486 381h1M486 382h1M486 383h1M486 384h1M486 385h1M486 386h1M486 387h1M486 388h1M486 389h1M486 390h1M486 391h1M486 392h1M486 393h1M486 394h1M486 395h1M486 396h1M486 397h1M486 398h1M486 399h1M486 400h1M486 401h1M486 402h1M486 403h1M486 404h1M486 405h1M486 406h1M486 407h1M486 408h1M1 409h486" />
<path stroke="#6060a2" d="M2 2h484M2 3h1M485 3h1M2 4h1M485 4h1M2 5h1M485 5h1M2 6h1M485 6h1M2 7h1M485 7h1M2 8h1M485 8h1M2 9h1M485 9h1M2 10h1M485 10h1M2 11h1M485 11h1M2 12h1M485 12h1M2 13h1M485 13h1M2 14h1M485 14h1M2 15h1M485 15h1M2 16h1M485 16h1M2 17h1M485 17h1M2 18h1M485 18h1M2 19h1M485 19h1M2 20h1M485 20h1M2 21h484" />
<path stroke="#000082" d="M3 3h482M3 4h482M3 5h482M3 6h482M3 7h4M11 7h9M22 7h1M25 7h460M3 8h3M8 8h2M12 8h8M22 8h1M25 8h460M3 9h2M7 9h7M18 9h2M22 9h1M25 9h2M31 9h2M37 9h1M40 9h3M45 9h440M3 10h2M7 10h6M14 10h3M19 10h1M22 10h1M25 10h1M28 10h2M32 10h1M35 10h3M40 10h3M45 10h440M3 11h2M7 11h2M12 11h3M19 11h1M22 11h1M25 11h1M28 11h2M32 11h1M35 11h4M41 11h1M44 11h441M3 12h2M7 12h3M12 12h2M16 12h1M19 12h1M22 12h1M25 12h1M32 12h1M35 12h4M41 12h1M44 12h441M3 13h2M7 13h3M12 13h1M15 13h2M19 13h1M22 13h1M25 13h1M28 13h5M35 13h4M41 13h1M44 13h441M3 14h3M8 14h2M12 14h1M15 14h2M19 14h1M22 14h1M25 14h1M28 14h2M32 14h1M35 14h5M43 14h442M3 15h4M11 15h3M19 15h1M22 15h1M25 15h2M31 15h2M35 15h5M43 15h442M3 16h37M42 16h443M3 17h35M41 17h444M3 18h482M3 19h482M3 20h482" />
<path stroke="rgba(130,130,130,0.5137254901960784)" d="M483 32h1M483 33h1M483 34h1M483 35h1M483 36h1M483 37h1M483 38h1M483 39h1M483 40h1M483 41h1M483 42h1M483 43h1M483 44h1M483 45h1M483 46h1M483 47h1M483 48h1M483 49h1M483 50h1M483 51h1M483 52h1M483 53h1M483 54h1M483 55h1M483 56h1M483 57h1M483 58h1M483 59h1M483 60h1M483 61h1M483 62h1M483 63h1M483 64h1M483 65h1M483 66h1M483 67h1M483 68h1M483 69h1M483 70h1M483 71h1M483 72h1M483 73h1M483 74h1M483 75h1M483 76h1M483 77h1M483 78h1M483 79h1M483 80h1M483 81h1M483 82h1M483 83h1M483 84h1M483 85h1M483 86h1M483 87h1M483 88h1M483 89h1M483 90h1M483 91h1M483 92h1M483 93h1M483 94h1M483 95h1M483 96h1M483 97h1M483 98h1M483 99h1M483 100h1M483 101h1M483 102h1M483 103h1M483 104h1M483 105h1M483 106h1M483 107h1M483 108h1M483 109h1M483 110h1M483 111h1M483 112h1M483 113h1M483 114h1M483 115h1M483 116h1M483 117h1M483 118h1M483 119h1M483 120h1M483 121h1M483 122h1M483 123h1M483 124h1M483 125h1M483 126h1M483 127h1M483 128h1M483 129h1M483 130h1M483 131h1M483 132h1M483 133h1M483 134h1M483 135h1M483 136h1M483 137h1M483 138h1M483 139h1M483 140h1M483 141h1M483 142h1M483 143h1M483 144h1M483 145h1M483 146h1M483 147h1M483 148h1M483 149h1M483 150h1M483 151h1M483 152h1M483 153h1M483 154h1M483 155h1M483 156h1M483 157h1M483 158h1M483 159h1M483 160h1M483 161h1M483 162h1M483 163h1M483 164h1M483 165h1M483 166h1M483 167h1M483 168h1M483 169h1M483 170h1M483 171h1M483 172h1M483 173h1M483 174h1M483 175h1M483 176h1M483 177h1M483 178h1M483 179h1M483 180h1M483 181h1M483 182h1M483 183h1M483 184h1M483 185h1M483 186h1M483 187h1M483 188h1M483 189h1M483 190h1M483 191h1M483 192h1M483 193h1M483 194h1M483 195h1M483 196h1M483 197h1M483 198h1M483 199h1M483 200h1M483 201h1M483 202h1M483 203h1M483 204h1M483 205h1M483 206h1M483 207h1M483 208h1M483 209h1M483 210h1M483 211h1M483 212h1M483 213h1M483 214h1M483 215h1M483 216h1M483 217h1M483 218h1M483 219h1M483 220h1M483 221h1M483 222h1M483 223h1M483 224h1M483 225h1M483 226h1M483 227h1M483 228h1M483 229h1M483 230h1M483 231h1M483 232h1M483 233h1M483 234h1M483 235h1M483 236h1M483 237h1M483 238h1M483 239h1M483 240h1M483 241h1M483 242h1M483 243h1M483 244h1M483 245h1M483 246h1M483 247h1M483 248h1M483 249h1M483 250h1M483 251h1M483 252h1M483 253h1M483 254h1M483 255h1M483 256h1M483 257h1M483 258h1M483 259h1M483 260h1M483 261h1M483 262h1M483 263h1M483 264h1M483 265h1M483 266h1M483 267h1M483 268h1M483 269h1M483 270h1M483 271h1M483 272h1M483 273h1M483 274h1M483 275h1M483 276h1M483 277h1M483 278h1M483 279h1M483 280h1M483 281h1M483 282h1M483 283h1M483 284h1M483 285h1M483 286h1M483 287h1M483 288h1M483 289h1M483 290h1M483 291h1M483 292h1M483 293h1M483 294h1M483 295h1M483 296h1M483 297h1M483 298h1M483 299h1M483 300h1M483 301h1M483 302h1M483 303h1M483 304h1M483 305h1M483 306h1M483 307h1M483 308h1M483 309h1M483 310h1M483 311h1M483 312h1M483 313h1M483 314h1M483 315h1M483 316h1M483 317h1M483 318h1M483 319h1M483 320h1M483 321h1M483 322h1M483 323h1M483 324h1M483 325h1M483 326h1M483 327h1M483 328h1M483 329h1M483 330h1M483 331h1M483 332h1M483 333h1M483 334h1M483 335h1M483 336h1M483 337h1M483 338h1M483 339h1M483 340h1M483 341h1M483 342h1M483 343h1M483 344h1M483 345h1M483 346h1M483 347h1M483 348h1M483 349h1M483 350h1M483 351h1M483 352h1M483 353h1M483 354h1M483 355h1M483 356h1M483 357h1M483 358h1M483 359h1M483 360h1M483 361h1M483 362h1M483 363h1M483 364h1M483 365h1M483 366h1M483 367h1M483 368h1M483 369h1M483 370h1M483 371h1M483 372h1M483 373h1M483 374h1M483 375h1M483 376h1M483 377h1M483 378h1M483 379h1M483 380h1M483 381h1M483 382h1M483 383h1M483 384h1M483 385h1M483 386h1M483 387h1M483 388h1M483 389h1M483 390h1M483 391h1M483 392h1M483 393h1M483 394h1M483 395h1M483 396h1M483 397h1M483 398h1M483 399h1M5 400h479" />
</svg>