<svg xmlns="http://www.w3.org/2000/svg" viewBox="0 -0.5 114 23" shape-rendering="crispEdges">
<metadata>Made with Pixels to Svg https://codepen.io/shshaw/pen/XbxvNj</metadata>
<path stroke="#000000" d="M0 0h2M3 0h46M50 0h1M53 0h2M56 0h58M0 1h1M112 1h2M112 2h2M0 3h1M112 3h2M0 4h1M112 4h2M0 5h1M112 5h2M0 6h1M112 6h2M0 7h1M55 7h1M112 7h2M0 8h1M56 8h1M112 8h2M0 9h1M57 9h1M112 9h2M0 10h1M58 10h1M112 10h2M0 11h1M59 11h1M112 11h2M0 12h1M58 12h1M112 12h2M0 13h1M57 13h1M112 13h2M0 14h1M56 14h1M112 14h2M0 15h1M55 15h1M112 15h2M0 16h1M112 16h2M0 17h1M112 17h2M0 18h1M112 18h2M0 19h1M112 19h2M0 20h1M112 20h2M0 21h2M3 21h106M110 21h4M0 22h114" />
<path stroke="#010101" d="M2 0h1M49 0h1M51 0h2M55 0h1M0 2h1M2 21h1M109 21h1" />
<path stroke="#ffffff" d="M1 1h3M5 1h44M50 1h3M54 1h50M105 1h2M108 1h4M1 2h1M1 3h1M1 5h1M1 6h1M1 7h1M1 8h1M1 9h1M1 10h1M1 11h1M1 12h1M1 13h1M1 14h1M1 15h1M1 16h1M1 17h1M1 18h1M1 19h1M1 20h1" />
<path stroke="#fefefe" d="M4 1h1M49 1h1M53 1h1M104 1h1M107 1h1M1 4h1" />
<path stroke="#c3c3c3" d="M2 2h2M5 2h44M50 2h1M52 2h1M54 2h53M108 2h3M2 3h1M7 3h41M49 3h1M51 3h1M55 3h54M110 3h1M6 4h1M8 4h47M56 4h48M105 4h5M2 5h1M5 5h1M7 5h42M52 5h1M56 5h49M108 5h3M2 6h4M7 6h44M52 6h1M54 6h50M109 6h1M2 7h2M5 7h2M8 7h40M49 7h3M54 7h1M56 7h50M107 7h4M2 8h46M50 8h1M53 8h1M57 8h3M63 8h48M2 9h46M51 9h2M54 9h3M58 9h1M60 9h1M63 9h48M2 10h47M50 10h1M52 10h1M54 10h4M59 10h52M2 11h46M49 11h1M51 11h1M55 11h4M60 11h1M62 11h49M2 12h53M56 12h1M62 12h49M2 13h47M52 13h1M60 13h1M62 13h49M2 14h46M49 14h2M52 14h1M54 14h2M57 14h54M2 15h46M49 15h3M54 15h1M56 15h1M59 15h52M2 16h3M6 16h98M105 16h1M107 16h4M3 17h103M109 17h2M3 18h103M108 18h3M2 19h3M6 19h99M108 19h3" />
<path stroke="#c4c4c4" d="M4 2h1M49 2h1M53 2h1M107 2h1M4 3h1M6 3h1M48 3h1M52 3h1M54 3h1M109 3h1M2 4h2M5 4h1M4 5h1M50 5h1M53 5h1M55 5h1M106 5h1M6 6h1M51 6h1M105 6h1M107 6h1M7 7h1M48 7h1M53 7h1M106 7h1M49 8h1M51 8h2M55 8h1M61 8h1M48 9h1M50 9h1M62 9h1M49 10h1M53 10h1M48 11h1M52 11h1M54 11h1M61 11h1M59 12h1M50 13h1M53 13h1M55 13h1M58 13h1M61 13h1M51 14h1M48 15h1M53 15h1M57 15h1M5 16h1M2 17h1M106 17h1M107 18h1M5 19h1M106 19h1" />
<path stroke="#c2c2c2" d="M51 2h1M3 3h1M5 3h1M50 3h1M53 3h1M7 4h1M55 4h1M104 4h1M110 4h1M3 5h1M6 5h1M49 5h1M51 5h1M54 5h1M105 5h1M107 5h1M53 6h1M104 6h1M106 6h1M108 6h1M110 6h1M4 7h1M52 7h1M48 8h1M54 8h1M60 8h1M62 8h1M49 9h1M53 9h1M59 9h1M61 9h1M51 10h1M50 11h1M53 11h1M55 12h1M57 12h1M60 12h2M49 13h1M51 13h1M54 13h1M56 13h1M59 13h1M48 14h1M53 14h1M52 15h1M58 15h1M104 16h1M106 16h1M107 17h2M2 18h1M106 18h1M105 19h1M107 19h1" />
<path stroke="#828282" d="M111 2h1M111 3h1M111 4h1M111 7h1M111 8h1M111 9h1M111 10h1M111 11h1M111 12h1M111 13h1M111 14h1M111 15h1M111 16h1M111 17h1M111 18h1M111 19h1M2 20h1M6 20h104M111 20h1" />
<path stroke="#c1c1c1" d="M4 4h1" />
<path stroke="#818181" d="M111 5h1M4 20h1" />
<path stroke="#838383" d="M111 6h1M3 20h1M5 20h1M110 20h1" />
</svg>